<?xml version="1.0" encoding="UTF-8" standalone="no"?>
<!DOCTYPE svg PUBLIC "-//W3C//DTD SVG 1.1//EN" "http://www.w3.org/Graphics/SVG/1.1/DTD/svg11.dtd">
<svg width="100%" height="100%" viewBox="0 0 441 232" version="1.1" xmlns="http://www.w3.org/2000/svg" xmlns:xlink="http://www.w3.org/1999/xlink" xml:space="preserve" style="fill-rule:evenodd;clip-rule:evenodd;stroke-linejoin:round;stroke-miterlimit:1.41421;">
    <path d="M361.044,50.977C365.472,51.049 369.154,51.083 372.081,51.083C374.421,51.083 377.911,51.049 382.541,50.977C381.851,57.397 380.681,72.302 379.041,95.705C375.491,95.633 372.631,95.599 370.461,95.599C367.291,95.599 363.731,95.629 359.791,95.699C360.321,83.419 360.731,68.509 361.051,50.969M379.261,122.369C373.961,122.299 370.421,122.259 368.641,122.259C366.031,122.259 362.261,122.299 357.351,122.359C357.631,119.109 357.821,116.629 357.931,114.899C358.041,113.169 358.211,109.589 358.461,104.149C362.851,104.219 366.601,104.249 369.706,104.249C372.32,104.249 375.806,104.209 380.166,104.141C379.676,111.986 379.379,118.055 379.276,122.341M311.736,164.907C311.736,164.907 345.696,169.737 360.376,146.93C361.546,145.11 362.596,143.125 363.494,140.94C366.172,141.22 368.894,141.383 371.662,141.383C407.542,141.383 436.632,117.058 436.632,87.055C436.632,84.837 436.469,82.65 436.159,80.505C432.295,53.587 404.895,32.725 371.666,32.725C335.786,32.725 306.696,57.049 306.696,87.055C306.696,105.569 317.78,121.909 334.696,131.719C331.936,141.415 325.352,158.294 311.736,164.906" style="fill:rgb(179,179,168);fill-rule:nonzero;"/>
    <path d="M370.46,95.6C372.622,95.6 375.48,95.633 379.037,95.705C380.677,72.302 381.847,57.395 382.541,50.977C377.911,51.049 374.421,51.083 372.091,51.083C369.161,51.083 365.481,51.049 361.051,50.977C360.741,68.521 360.321,83.427 359.791,95.705C363.741,95.633 367.291,95.599 370.471,95.599" style="fill:rgb(82,70,67);fill-rule:nonzero;"/>
    <path d="M245.806,108.793C251.294,105.14 256.778,100.568 262.262,96.913C263.178,103.308 261.35,113.365 263.178,118.853C266.834,130.737 278.718,133.48 288.775,138.965C295.175,132.568 302.487,138.965 306.147,146.28C311.627,159.08 305.231,157.25 296.087,161.82C281.459,169.134 270.491,174.618 262.262,189.246C254.95,200.218 259.519,208.446 256.778,219.412C253.118,235.872 239.408,230.38 230.266,229.468C222.953,205.702 194.609,225.812 177.244,227.643C162.614,229.468 147.072,227.643 132.447,224.896C122.39,223.984 106.319,213.018 97.177,214.843C90.777,215.759 88.034,226.727 80.719,228.555C75.229,230.38 61.129,227.643 56.559,226.727C59.299,215.759 66.609,208.447 63.869,198.387C62.039,188.33 52.899,179.19 51.069,168.22C48.319,147.2 55.639,122.52 72.089,109.72C102.259,86.867 156.199,84.12 191.839,91.43C207.379,94.18 231.149,99.66 243.949,109.72" style="fill:rgb(82,70,67);"/>
    <path d="M5.45,164.084C13.793,166.374 27.96,168.559 30.49,157.174C32.19,149.534 23.128,141.014 16.562,147.734C8.212,156.28 18.732,170.327 28.865,169.971C41.509,169.531 44.209,153.581 44.34,143.771C44.38,140.681 39.58,140.211 39.54,143.321C39.468,148.521 39.03,153.941 36.756,158.691C32.826,166.901 20.543,167.161 18.856,156.891C18.253,153.231 21.562,147.591 25.046,151.881C27.434,154.821 25.036,159.131 22.116,160.471C17.79,162.471 11.484,160.781 7.126,159.581C4.146,158.771 2.456,163.281 5.45,164.111" style="fill:rgb(82,70,67);fill-rule:nonzero;"/>
    <path d="M262.14,139.527C259.753,140.449 255.203,142.49 256.747,145.884C257.725,148.037 260.672,148.349 262.681,147.734C263.931,147.352 264.881,146.337 264.641,144.94C264.441,143.777 263.101,142.6 261.851,142.983C261.561,143.073 261.271,143.137 260.971,143.183C260.441,143.268 261.321,143.163 260.761,143.19C260.181,143.218 260.631,143.193 260.621,143.202C260.371,143.105 260.401,143.14 260.721,143.299C260.491,143.129 260.541,143.209 260.881,143.539C261.238,143.849 261.381,144.259 261.319,144.769C260.969,145.529 260.919,145.719 261.159,145.349L261.055,145.479C261.195,145.349 261.335,145.239 261.495,145.129C262.345,144.599 263.305,144.239 264.24,143.879C267.13,142.759 265.056,138.399 262.17,139.519" style="fill:rgb(255,236,188);fill-rule:nonzero;"/>
    <path d="M358.428,104.177C358.181,109.617 358.008,113.202 357.903,114.927C357.8,116.652 357.606,119.137 357.328,122.38C362.248,122.312 366.012,122.277 368.628,122.277C370.406,122.277 373.948,122.312 379.248,122.38C379.35,118.093 379.648,112.024 380.134,104.177C375.778,104.247 372.291,104.283 369.674,104.283C366.569,104.283 362.819,104.246 358.428,104.177" style="fill:rgb(82,70,67);fill-rule:nonzero;"/>
</svg>
