<?xml version="1.0" encoding="UTF-8" standalone="no"?>
<!DOCTYPE svg PUBLIC "-//W3C//DTD SVG 1.1//EN" "http://www.w3.org/Graphics/SVG/1.1/DTD/svg11.dtd">
<svg width="100%" height="100%" viewBox="0 0 441 232" version="1.1" xmlns="http://www.w3.org/2000/svg" xmlns:xlink="http://www.w3.org/1999/xlink" xml:space="preserve" style="fill-rule:evenodd;clip-rule:evenodd;stroke-linejoin:round;stroke-miterlimit:1.41421;">
    <path d="M413.223,172.158C412.823,170.238 411.155,165.795 406.686,161.623L403.766,133.973L403.786,133.973C404.68,133.973 405.406,133.063 405.406,131.945C405.406,130.825 404.68,129.92 403.786,129.92L394.696,129.92C393.806,129.92 393.08,130.826 393.08,131.945C393.08,133.065 393.805,133.973 394.695,133.973L394.895,133.973C394.465,137.92 392.158,159.111 392.139,161.667C390.519,163.342 385.759,168.637 385.659,172.842C385.649,172.898 385.659,172.952 385.669,173.004C385.659,173.076 385.659,173.148 385.659,173.224L385.659,227.92C385.659,229.32 386.709,230.454 388.009,230.454L411.079,230.454C412.379,230.454 413.429,229.32 413.429,227.92L413.429,173.223C413.429,172.843 413.349,172.483 413.209,172.158" style="fill:rgb(82,70,67);fill-rule:nonzero;"/>
    <path d="M389.795,176.692L408.355,176.692L408.355,222.648L389.795,222.648L389.795,176.692Z" style="fill:rgb(233,228,211);fill-rule:nonzero;"/>
    <path d="M399.23,220.498L399.126,181.908L399.48,181.908L399.58,220.498L399.23,220.498Z" style="fill:rgb(82,70,67);fill-rule:nonzero;"/>
    <path d="M401.314,208.492C399.576,210.145 399.117,212.848 399.498,215.712C399.983,214.217 400.926,212.472 401.964,210.886C402.594,209.92 403.248,209.183 403.62,208.266C402.7,210.516 402.22,211.596 401.008,213.464C400.511,214.229 400.073,215.217 399.551,215.842C400.811,215.586 401.941,215.052 402.841,214.202C404.641,212.482 405.231,209.817 404.761,206.817C403.441,207.057 402.261,207.604 401.331,208.492" style="fill:rgb(82,70,67);fill-rule:nonzero;"/>
    <path d="M397.473,208.26C399.211,209.914 399.693,212.592 399.313,215.454C398.83,213.961 397.883,212.401 396.845,210.814C396.361,210.07 395.617,209.194 395.167,208.036C395.889,209.892 396.777,211.636 397.989,213.501C398.479,214.271 398.709,214.991 399.229,215.611C397.969,215.361 396.839,214.821 395.939,213.971C394.139,212.251 393.549,209.591 394.019,206.591C395.349,206.831 396.519,207.381 397.449,208.271M401.169,201.681C399.689,203.091 399.209,205.181 399.529,207.611C399.939,206.341 400.719,205.341 401.599,203.721C402.069,202.861 402.539,202.531 403.119,201.501C402.399,202.801 401.929,204.201 400.899,205.791C400.479,206.441 399.939,207.161 399.499,207.691C400.569,207.471 401.679,207.261 402.449,206.541C403.979,205.081 404.479,202.821 404.079,200.271C402.949,200.481 401.949,200.941 401.159,201.701" style="fill:rgb(82,70,67);fill-rule:nonzero;"/>
    <path d="M397.76,201.348C399.236,202.754 399.742,204.914 399.42,207.345C399.008,206.075 398.158,204.82 397.276,203.473C396.906,202.901 396.589,202.195 395.801,201.158C396.701,202.336 397.091,204.07 398.111,205.658C398.541,206.308 398.971,206.92 399.421,207.448C398.351,207.228 397.241,206.92 396.481,206.198C394.961,204.738 394.451,202.476 394.851,199.926C395.981,200.129 396.981,200.596 397.771,201.348M400.841,194.318C399.601,195.498 399.311,197.523 399.581,199.568C399.931,198.501 400.551,197.292 401.291,196.154C401.741,195.467 402.261,194.82 402.491,194.158C401.981,195.592 401.491,196.523 400.611,197.948C400.271,198.501 399.961,199.123 399.591,199.568C400.491,199.386 401.301,199.004 401.941,198.395C403.231,197.17 403.651,195.265 403.311,193.12C402.361,193.292 401.521,193.683 400.851,194.317M397.941,194.273C399.181,195.453 399.561,197.398 399.291,199.445C398.941,198.375 398.261,197.217 397.521,196.083C397.071,195.393 396.791,194.853 396.291,194.113C396.981,195.151 397.441,196.613 398.311,197.948C398.671,198.498 398.841,199.078 399.211,199.526C398.311,199.342 397.511,198.961 396.871,198.351C395.591,197.131 395.161,195.221 395.501,193.081C396.451,193.251 397.291,193.651 397.961,194.281M400.441,187.811C399.451,188.751 399.121,190.211 399.331,191.841C399.611,190.991 400.141,190.131 400.731,189.231C401.091,188.681 401.271,188.451 401.761,187.691C401.221,188.531 400.891,189.561 400.191,190.631C399.911,191.071 399.631,191.491 399.331,191.851C400.051,191.711 400.801,191.571 401.311,191.081C402.331,190.101 402.671,188.581 402.401,186.871C401.651,187.011 400.971,187.321 400.441,187.831" style="fill:rgb(82,70,67);fill-rule:nonzero;"/>
    <path d="M398.117,187.664C399.111,188.608 399.447,190.058 399.23,191.692C398.955,190.839 398.386,189.992 397.792,189.086C397.436,188.533 396.982,188.07 396.805,187.536C397.18,188.642 397.689,189.492 398.38,190.558C398.667,190.995 398.933,191.336 399.23,191.692C398.514,191.545 397.764,191.404 397.25,190.92C396.23,189.942 395.886,188.42 396.158,186.708C396.918,186.845 397.588,187.158 398.118,187.664M400.21,181.648C399.358,182.461 399.158,183.854 399.345,185.261C399.583,184.531 399.983,183.611 400.495,182.831C400.801,182.361 400.961,182.001 401.345,181.551C400.792,182.211 400.973,182.621 400.198,183.831C399.958,184.211 399.601,184.971 399.345,185.271C399.965,185.151 400.517,184.891 400.961,184.471C401.851,183.631 402.141,182.321 401.901,180.841C401.251,180.961 400.671,181.231 400.211,181.671" style="fill:rgb(82,70,67);fill-rule:nonzero;"/>
    <path d="M398.242,181.533C399.095,182.345 399.389,183.595 399.205,185.003C398.965,184.267 398.498,183.461 397.989,182.679C397.859,182.479 397.599,182.119 397.099,181.419C397.589,182.119 397.919,183.099 398.509,184.019C398.749,184.389 398.969,184.779 399.229,185.089C398.609,184.959 397.919,184.749 397.479,184.329C396.589,183.479 396.299,182.169 396.529,180.699C397.179,180.819 397.759,181.079 398.219,181.519" style="fill:rgb(82,70,67);fill-rule:nonzero;"/>
    <path d="M320.66,181.38L359.592,181.38C361.567,179.89 362.852,177.533 362.852,174.87C362.852,170.37 359.202,166.717 354.698,166.717C354.405,166.717 354.114,166.737 353.826,166.767C352.608,160.477 347.076,155.727 340.433,155.727C334.017,155.727 328.648,160.157 327.189,166.127C327.089,166.123 326.989,166.111 326.889,166.111C321.959,166.111 317.979,170.101 317.979,175.021C317.979,177.521 318.999,179.771 320.659,181.381" style="fill:rgb(179,179,168);fill-rule:nonzero;"/>
    <path d="M359.514,213.392L359.514,198.667C363.574,198.667 366.876,201.97 366.876,206.029C366.876,210.089 363.573,213.389 359.514,213.389M352.967,222.079C352.967,223.339 351.945,224.359 350.687,224.359C349.427,224.359 348.405,223.339 348.405,222.079L348.405,192.659C348.405,191.399 349.425,190.369 350.685,190.369C351.945,190.369 352.967,191.389 352.967,192.649L352.967,222.079ZM346.12,222.079C346.12,223.339 345.1,224.359 343.84,224.359C342.58,224.359 341.558,223.339 341.558,222.079L341.558,192.659C341.558,191.399 342.58,190.369 343.838,190.369C345.101,190.369 346.12,191.389 346.12,192.649L346.12,222.079ZM339.276,222.079C339.276,223.339 338.256,224.359 336.996,224.359C335.736,224.359 334.714,223.339 334.714,222.079L334.714,192.659C334.714,191.399 335.736,190.369 336.994,190.369C338.254,190.369 339.276,191.389 339.276,192.649L339.276,222.079ZM332.43,222.079C332.43,223.339 331.41,224.359 330.15,224.359C328.89,224.359 327.867,223.339 327.867,222.079L327.867,192.659C327.867,191.399 328.889,190.369 330.151,190.369C331.411,190.369 332.431,191.389 332.431,192.649L332.431,222.069L332.43,222.079ZM359.514,192.209L359.514,183.659L321.32,183.659L321.32,226.449C321.32,228.989 323.38,231.049 325.923,231.049L354.908,231.049C357.455,231.049 359.514,228.989 359.514,226.449L359.514,219.799C367.126,219.799 373.317,213.609 373.317,205.989C373.317,198.379 367.127,192.179 359.514,192.179" style="fill:rgb(82,70,67);fill-rule:nonzero;"/>
    <g transform="matrix(1,0,0,1,-17,7)">
        <path d="M268.96,102.386C274.448,98.732 279.933,94.161 285.42,90.504C286.333,96.901 284.504,106.957 286.333,112.444C289.989,124.329 301.873,127.074 311.929,132.557C318.329,126.161 325.639,132.557 329.299,139.873C334.779,152.673 328.389,150.843 319.239,155.413C304.609,162.726 293.639,168.211 285.419,182.839C278.099,193.809 282.669,202.039 279.929,212.999C276.269,229.459 262.559,223.969 253.409,223.049C246.089,199.279 217.749,219.389 200.379,221.219C185.749,223.039 170.209,221.219 155.579,218.469C145.519,217.549 129.449,206.589 120.309,208.409C113.909,209.319 111.169,220.289 103.849,222.119C98.359,223.939 84.259,221.209 79.689,220.289C82.429,209.319 89.739,202.009 86.999,191.949C85.169,181.889 76.029,172.749 74.199,161.779C71.449,140.749 78.769,116.069 95.219,103.269C125.419,80.429 179.359,77.689 215.009,84.999C230.549,87.739 254.319,93.229 267.119,103.289" style="fill:rgb(82,70,67);"/>
    </g>
    <g transform="matrix(1,0,0,1,-17,7)">
        <path d="M28.604,157.676C36.948,159.966 51.114,162.151 53.644,150.766C55.344,143.126 46.282,134.606 39.717,141.326C31.367,149.873 41.887,163.92 52.02,163.564C64.664,163.117 67.364,147.17 67.498,137.354C67.538,134.267 62.736,133.794 62.695,136.901C62.625,142.101 62.185,147.521 59.911,152.271C55.981,160.481 43.701,160.741 42.011,150.471C41.411,146.811 44.721,141.171 48.211,145.461C50.601,148.401 48.201,152.711 45.281,154.051C40.961,156.051 34.651,154.361 30.291,153.161C27.311,152.351 25.621,156.861 28.621,157.691" style="fill:rgb(82,70,67);fill-rule:nonzero;"/>
    </g>
    <g transform="matrix(1,0,0,1,-17,7)">
        <path d="M285.298,133.123C282.911,134.045 278.361,136.086 279.904,139.479C280.879,141.629 283.829,141.939 285.836,141.329C287.083,140.939 288.039,139.929 287.792,138.529C287.589,137.359 286.254,136.189 284.998,136.569C284.708,136.659 284.418,136.719 284.118,136.769C283.583,136.849 284.464,136.739 283.901,136.769C283.321,136.799 283.771,136.769 283.761,136.779C283.511,136.679 283.541,136.709 283.861,136.869C283.631,136.699 283.681,136.779 284.021,137.109C284.381,137.419 284.521,137.829 284.461,138.329C284.111,139.089 284.061,139.279 284.311,138.909L284.211,139.039C284.351,138.919 284.501,138.799 284.651,138.689C285.511,138.159 286.471,137.799 287.401,137.439C290.291,136.319 288.221,131.969 285.331,133.079" style="fill:rgb(255,236,188);fill-rule:nonzero;"/>
    </g>
</svg>
