<svg viewBox="0 0 441 232" xmlns="http://www.w3.org/2000/svg" fill-rule="evenodd" clip-rule="evenodd" stroke-linejoin="round" stroke-miterlimit="1.414"><path d="M310.506 109.07c5.532-3.615 11.06-8.135 16.592-11.75.92 6.324-.92 16.27.92 21.694 3.687 11.756 15.672 14.466 25.81 19.89 6.454-6.324 13.823 0 17.513 7.237 5.53 12.66-.92 10.85-10.14 15.37-14.74 7.23-25.8 12.66-34.1 27.13-7.37 10.85-2.76 18.99-5.53 29.83-3.68 16.28-17.51 10.85-26.72 9.95-7.37-23.5-35.94-3.61-53.45-1.81-14.74 1.81-30.41 0-45.16-2.71-10.13-.9-26.34-11.75-35.55-9.94-6.45.91-9.21 11.75-16.59 13.56-5.53 1.81-19.74-.9-24.35-1.81 2.77-10.84 10.14-18.07 7.38-28.02-1.84-9.94-11.06-18.98-12.9-29.83-2.77-20.79 4.61-45.2 21.2-57.86 30.42-22.6 84.8-25.31 120.74-18.08 15.67 2.71 39.633 8.14 52.538 18.08M68.2 163.76c8.41 2.263 22.695 4.42 25.245-6.84 1.715-7.55-7.426-15.97-14.04-9.33-8.42 8.45 2.184 22.35 12.402 21.99 12.744-.44 15.47-16.21 15.6-25.916.044-3.052-4.796-3.52-4.84-.45-.07 5.147-.51 10.495-2.804 15.196-3.96 8.12-16.343 8.377-18.045-1.775-.606-3.623 2.73-9.2 6.244-4.957 2.402 2.902-.014 7.166-2.96 8.495-4.358 1.97-10.715.3-15.11-.89-3.004-.81-4.707 3.66-1.69 4.476z" fill="#524643" fill-rule="nonzero"/><path d="M326.977 139.463c-2.415.906-7.066 2.98-5.414 6.343 1.18 2.402 4.408 2.26 6.577 1.58 1.254-.39 1.664-2.13 1.154-3.18-.623-1.29-1.983-1.52-3.237-1.127.882-.28-.16-.03-.41.01-.39.07.69.05.095-.01-.138-.02-.286-.03-.424-.03-.54-.01.424.18.138.04-.068-.04-.176-.08-.25-.09-.328-.05.574.38.207.1.363.34.467.43.307.27-.146-.18-.07-.06.234.36-.096-.22-.048-.07.138.43 0 .537.008.682.025.447-.133.49-.163.62-.086.4-.23.41-.29.52-.16.32.26-.37-.07.185-.15.13 0-.004.38-.32.4-.34.5-.42-.22.083.18-.13.25-.13.49-.27.75-.39.66-.328 1.34-.598 2.02-.85 1.23-.46 1.68-2.08 1.16-3.18-.6-1.24-2.01-1.59-3.24-1.13z" fill="#FFEDBD" fill-rule="nonzero"/><path d="M231.84 76.54c-2.875 2.82-5.287 6.076-7.36 9.52-12.476 20.736-11.455 48.702 2.504 68.488-4.82-15.695.494-33.704 12.29-45.2.288 5.755 1.823 11.444 4.47 16.572 24.292-7.63 47.792-17.74 70.007-30.124-8.83-13.31-21.64-24.51-37.04-29.014-15.4-4.505-33.44-1.452-44.86 9.758z" fill="#B13328" fill-rule="nonzero"/><path d="M246.093 129.614c-1.387.21-2.475-1.44-2.22-2.806.258-1.368 1.376-2.4 2.495-3.237 2.893-2.16 6.886-3.73 10.068-2.01 1.877-4.44 7.043-7.25 11.827-6.44 3.432-5.41 11.03-7.78 16.965-5.27 1.77-5.67 8.518-9.28 14.268-7.62 1.79-4.6 7.665-7.14 12.278-5.31 1.145-3.53 6.57-4.3 9.213-1.67 2.643 2.63 2.42 7.25.175 10.22 4.838-2.39 11.382 2.87 10.04 8.06-1.338 5.2-9.62 6.68-12.707 2.28-2.96 4.5-9.52 6.23-14.335 3.76-2.072 5.14-8.98 7.68-13.925 5.13.09 3.27-2.99 5.88-6.188 6.66-3.196.79-6.546.25-9.838.15-.93-.02-1.9 0-2.68.5-.87.56-1.29 1.59-1.81 2.48-2.24 3.82-7.53 5.52-11.6 3.73.68 1.724-.32 3.763-1.87 4.797-1.55 1.036-3.5 1.267-5.37 1.28-1.28.01-2.66-.102-3.64-.92-.98-.82-1.21-2.574-.15-3.274-.99.465-2.018-.547-2.647-1.44-1.175-1.676-2.4-3.5-2.36-5.54.04-2.04 2.026-4.135 3.972-3.47zm-25.75 40.89c.187-1.72 1.282-3.277 2.766-4.17-1.18-.014-2.4-.654-2.97-1.702-.92-1.688-.32-3.917 1.06-5.26 1.38-1.343 3.37-1.914 5.3-2.01.34-.017.71-.025 1.01-.207.33-.206.51-.59.7-.93 1.33-2.35 4.69-3.29 7.07-1.984 1.48.82 2.42 2.42 2.6 4.08.62-.94 1.62-1.68 2.74-1.93 2.15-.47 4.41.55 5.96 2.1 2.54 2.57 3.15 6.64 1.93 9.98.68.15 1.31.57 1.62 1.2.6 1.2.07 2.66-.66 3.79-2.01 3.09-5.62 5.1-9.33 5.18-1.15.03-2.39-.16-3.27-.86-.17.25-.36.48-.55.69-1.91 1.96-4.88 3.39-7.37 2.25-1.6-.722-2.63-2.49-2.51-4.222-.87.183-1.78.148-2.59-.167-2.28-.885-3.8-3.38-3.54-5.79z" fill="#fff" fill-rule="nonzero"/></svg>