<?xml version="1.0" encoding="UTF-8" standalone="no"?>
<!DOCTYPE svg PUBLIC "-//W3C//DTD SVG 1.1//EN" "http://www.w3.org/Graphics/SVG/1.1/DTD/svg11.dtd">
<svg width="100%" height="100%" viewBox="0 0 441 232" version="1.1" xmlns="http://www.w3.org/2000/svg" xmlns:xlink="http://www.w3.org/1999/xlink" xml:space="preserve" style="fill-rule:evenodd;clip-rule:evenodd;stroke-linejoin:round;stroke-miterlimit:1.41421;">
    <path d="M396.957,193.222C395.572,191.788 393.982,191.282 392.867,191.11C391.907,183.88 391.019,180.113 360.863,180.113C330.71,180.113 328.769,184.66 328.769,192.547L328.769,193.894C328.769,196.029 330.489,197.76 332.629,197.76L342.299,197.76C344.429,197.76 346.159,196.03 346.159,193.894L346.159,192.547C346.159,186.437 355.519,186.251 360.849,186.251C366.179,186.251 375.539,186.441 375.539,192.551L375.539,193.901C375.539,196.041 377.269,197.771 379.399,197.771L389.069,197.771C391.201,197.771 392.932,196.041 392.932,193.911L392.932,193.391C393.646,193.571 394.546,193.951 395.342,194.771C397.282,196.791 397.928,200.671 397.206,206.011C395.956,215.271 392.316,218.571 388.441,219.671L388.441,218.061C388.441,216.431 388.035,214.811 387.207,213.401C383.342,206.781 377.852,200.911 370.877,195.741L370.877,191.831C370.877,191.531 370.627,191.281 370.327,191.281L364.587,191.281C364.277,191.281 364.037,191.531 364.037,191.831L364.037,195.721L357.487,195.721L357.487,191.831C357.487,191.531 357.237,191.281 356.937,191.281L351.197,191.281C350.893,191.281 350.643,191.531 350.643,191.831L350.643,195.721C343.663,200.909 338.163,206.778 334.293,213.406C333.463,214.816 333.058,216.436 333.058,218.069L333.058,221.707C333.058,226.897 337.262,231.097 342.448,231.097L379.063,231.097C384.166,231.097 388.307,227.027 388.438,221.957C394.645,220.497 398.168,215.432 399.401,206.317C400.231,200.197 399.401,195.797 396.936,193.247" style="fill:rgb(82,70,67);fill-rule:nonzero;"/>
    <path d="M282.67,108.79C288.157,105.135 293.64,100.566 299.13,96.91C300.04,103.307 298.213,113.363 300.04,118.85C303.697,130.735 315.582,133.48 325.638,138.963C332.038,132.563 339.35,138.963 343.01,146.279C348.494,159.079 342.097,157.239 332.95,161.819C318.325,169.129 307.357,174.609 299.13,189.239C291.813,200.209 296.382,208.439 293.64,219.399C289.982,235.859 276.272,230.369 267.13,229.449C259.816,205.679 231.475,225.789 214.107,227.619C199.479,229.439 183.937,227.619 169.31,224.869C159.253,223.959 143.185,212.989 134.04,214.812C127.64,215.729 124.9,226.698 117.585,228.526C112.1,230.356 98,227.613 93.428,226.701C96.175,215.731 103.485,208.421 100.744,198.361C98.919,188.304 89.774,179.161 87.947,168.194C85.203,147.16 92.519,122.484 108.972,109.684C139.144,86.826 193.085,84.084 228.732,91.394C244.275,94.138 268.044,99.624 280.844,109.684" style="fill:rgb(82,70,67);"/>
    <path d="M42.313,164.082C50.657,166.372 64.823,168.56 67.353,157.172C69.053,149.532 59.991,141.012 53.425,147.735C45.075,156.279 55.595,170.329 65.728,169.969C78.372,169.519 81.072,153.569 81.208,143.759C81.248,140.669 76.444,140.189 76.403,143.299C76.335,148.499 75.893,153.909 73.619,158.659C69.679,166.869 57.409,167.119 55.719,156.859C55.109,153.189 58.419,147.549 61.909,151.839C64.289,154.769 61.889,159.079 58.969,160.429C54.639,162.419 48.339,160.729 43.979,159.529C40.999,158.713 39.309,163.232 42.299,164.054" style="fill:rgb(82,70,67);fill-rule:nonzero;"/>
    <path d="M299.007,139.525C296.619,140.45 292.069,142.488 293.613,145.885C294.588,148.035 297.538,148.347 299.543,147.732C300.791,147.35 301.747,146.335 301.5,144.938C301.297,143.778 299.963,142.598 298.707,142.982C298.417,143.072 298.125,143.138 297.825,143.182C297.291,143.266 298.172,143.162 297.61,143.188C297.03,143.216 297.475,143.191 297.466,143.2C297.213,143.107 297.246,143.138 297.566,143.3C297.338,143.13 297.388,143.21 297.719,143.544C298.069,143.857 298.209,144.266 298.149,144.774C297.799,145.534 297.739,145.729 297.989,145.354C297.949,145.397 297.919,145.444 297.879,145.484C298.019,145.36 298.159,145.244 298.319,145.138C299.169,144.61 300.129,144.244 301.069,143.885C303.959,142.765 301.879,138.41 298.989,139.525" style="fill:rgb(255,236,188);fill-rule:nonzero;"/>
</svg>
