<?xml version="1.0" encoding="UTF-8" standalone="no"?>
<!DOCTYPE svg PUBLIC "-//W3C//DTD SVG 1.1//EN" "http://www.w3.org/Graphics/SVG/1.1/DTD/svg11.dtd">
<svg width="100%" height="100%" viewBox="0 0 441 232" version="1.1" xmlns="http://www.w3.org/2000/svg" xmlns:xlink="http://www.w3.org/1999/xlink" xml:space="preserve" style="fill-rule:evenodd;clip-rule:evenodd;stroke-linejoin:round;stroke-miterlimit:1.41421;">
    <path d="M430.936,195.458C431.648,193.928 431.67,192.098 430.842,190.48C429.414,187.7 425.998,186.602 423.214,188.03C420.67,189.34 419.536,192.308 420.454,194.936L399.28,205.81C397.68,203.533 394.607,202.727 392.064,204.033C389.279,205.461 388.179,208.877 389.611,211.661C390.451,213.281 391.951,214.331 393.601,214.641C392.891,216.171 392.871,218.001 393.701,219.621C395.131,222.411 398.551,223.501 401.331,222.081C403.881,220.771 405.011,217.801 404.091,215.181L425.271,204.311C426.871,206.591 429.951,207.401 432.491,206.091C435.281,204.661 436.371,201.251 434.941,198.471C434.111,196.851 432.611,195.808 430.951,195.496" style="fill:rgb(179,179,168);fill-rule:nonzero;"/>
    <g transform="matrix(1,0,0,1,0,4)">
        <path d="M172.748,206.086C167.26,209.742 161.776,214.311 156.292,217.966C155.376,211.57 157.207,201.514 155.376,196.026C151.72,184.142 139.836,181.399 129.779,175.914C123.379,182.314 116.059,175.914 112.399,168.599C106.919,155.799 113.309,157.629 122.459,153.049C137.079,145.729 148.049,140.249 156.279,125.619C163.589,114.649 159.019,106.419 161.759,95.449C165.419,78.989 179.129,84.479 188.269,85.389C195.579,109.149 223.919,89.039 241.289,87.219C255.919,85.389 271.449,87.219 286.079,89.959C296.129,90.869 312.199,101.839 321.349,100.009C327.749,99.089 330.489,88.119 337.809,86.289C343.289,84.459 357.379,87.199 361.959,88.119C359.209,99.079 351.899,106.399 354.639,116.459C356.469,126.509 365.609,135.659 367.439,146.619C370.179,167.649 362.869,192.329 346.409,205.129C316.239,227.989 262.293,230.729 226.649,223.419C211.103,220.672 187.339,215.189 174.539,205.129" style="fill:rgb(82,70,67);"/>
    </g>
    <path d="M413.107,150.8C404.764,148.505 390.597,146.32 388.064,157.708C386.364,165.348 395.429,173.864 401.992,167.145C410.342,158.602 399.826,144.552 389.692,144.911C377.048,145.361 374.345,161.311 374.214,171.121C374.174,174.211 378.974,174.691 379.017,171.581C379.087,166.381 379.523,160.971 381.797,156.221C385.729,148.011 398.011,147.761 399.701,158.021C400.301,161.691 397.001,167.331 393.511,163.031C391.131,160.101 393.521,155.791 396.451,154.441C400.771,152.451 407.081,154.141 411.441,155.341C414.421,156.161 416.111,151.641 413.121,150.821" style="fill:rgb(82,70,67);fill-rule:nonzero;"/>
    <g transform="matrix(1,0,0,1,0,4)">
        <path d="M166.407,167.767C163.504,167.757 160.817,168.22 158.454,169.461C156.084,170.671 154.167,172.601 152.939,175.241C152.929,172.271 155.039,169.441 157.739,168.081C160.439,166.691 163.749,166.551 166.399,167.771" style="fill:rgb(255,236,188);fill-rule:nonzero;"/>
    </g>
    <path d="M106.175,185.31L104.877,186.338L88.037,185.97L94.267,193.83L93.043,194.802L85.317,185.055L86.615,184.025L103.455,184.395L96.525,175.652L97.75,174.682L106.175,185.31ZM97.332,174.037L95.824,174.722L79.57,170.302L83.72,179.434L82.298,180.081L77.152,168.761L78.659,168.081L94.909,172.501L90.289,162.351L91.709,161.711L97.319,174.061L97.332,174.037ZM91.508,161.034L89.876,161.314L75.273,152.919L76.973,162.799L75.433,163.059L73.325,150.799L74.957,150.519L89.561,158.909L87.671,147.909L89.211,147.639L91.511,161.009L91.508,161.034ZM89.21,146.984L87.558,146.857L75.453,135.143L74.683,145.145L73.125,145.025L74.08,132.625L75.73,132.752L87.836,144.465L88.693,133.342L90.25,133.462L89.21,146.985L89.21,146.984ZM90.47,132.577L88.883,132.103L79.533,118.091L76.663,127.711L75.166,127.271L78.726,115.361L80.313,115.841L89.663,129.861L92.855,119.171L94.353,119.618L90.47,132.608L90.47,132.577ZM95.09,118.292L93.572,117.632L85.952,102.609L81.962,111.809L80.527,111.189L85.477,99.779L86.997,100.439L94.617,115.459L99.057,105.219L100.489,105.839L95.089,118.279L95.09,118.292ZM101.275,104.217L99.785,103.492L92.835,88.148L88.443,97.166L87.038,96.482L92.485,85.3L93.975,86.026L100.925,101.37L105.811,91.34L107.221,92.025L101.281,104.217L101.275,104.217ZM108.195,90.212L106.709,89.484L99.779,74.126L95.369,83.136L93.959,82.449L99.429,71.269L100.909,71.999L107.829,87.359L112.729,77.339L114.129,78.019L108.159,90.199L108.195,90.212ZM115.855,74.642L114.293,74.094L105.613,59.658L102.293,69.125L100.818,68.608L104.933,56.871L106.496,57.421L115.178,71.861L118.868,61.331L120.344,61.851L115.856,74.651L115.855,74.642Z" style="fill:rgb(82,70,67);fill-rule:nonzero;"/>
    <path d="M55.298,148.524C56.985,148.484 58.635,147.692 59.718,146.23C61.576,143.714 61.042,140.167 58.526,138.308C56.226,136.608 53.06,136.911 51.116,138.902L31.966,124.755C33.298,122.311 32.66,119.195 30.356,117.495C27.842,115.639 24.296,116.17 22.436,118.685C21.356,120.148 21.086,121.958 21.542,123.583C19.854,123.627 18.204,124.417 17.122,125.877C15.262,128.395 15.798,131.939 18.312,133.797C20.612,135.502 23.779,135.195 25.722,133.205L44.872,147.352C43.538,149.795 44.179,152.912 46.482,154.612C48.998,156.47 52.545,155.936 54.402,153.42C55.482,151.958 55.754,150.15 55.298,148.524M82.788,221.586C84.276,220.789 85.392,219.339 85.698,217.549C86.223,214.459 84.151,211.539 81.068,211.009C78.245,210.529 75.558,212.219 74.718,214.879L51.248,210.879C51.338,208.099 49.363,205.599 46.542,205.119C43.46,204.589 40.532,206.669 40.007,209.749C39.701,211.539 40.277,213.279 41.413,214.529C39.926,215.319 38.807,216.769 38.503,218.559C37.979,221.639 40.051,224.569 43.135,225.089C45.955,225.569 48.645,223.869 49.482,221.219L72.954,225.219C72.864,227.999 74.838,230.489 77.66,230.969C80.745,231.489 83.67,229.419 84.195,226.339C84.501,224.539 83.925,222.809 82.788,221.559M48.518,173.719C49.451,172.309 49.754,170.509 49.178,168.779C48.188,165.809 44.978,164.209 42.013,165.199C39.298,166.099 37.726,168.869 38.238,171.599L15.654,179.131C14.42,176.636 11.504,175.371 8.792,176.276C5.822,177.266 4.22,180.47 5.212,183.439C5.788,185.159 7.112,186.422 8.704,186.982C7.77,188.387 7.467,190.192 8.042,191.915C9.032,194.885 12.242,196.485 15.207,195.495C17.923,194.587 19.495,191.825 18.982,189.087L41.562,181.552C42.798,184.042 45.717,185.312 48.429,184.402C51.389,183.412 52.999,180.202 52.009,177.237C51.429,175.513 50.099,174.251 48.509,173.691" style="fill:rgb(179,179,168);fill-rule:nonzero;"/>
</svg>
