<?xml version="1.0" encoding="UTF-8" standalone="no"?>
<!DOCTYPE svg PUBLIC "-//W3C//DTD SVG 1.1//EN" "http://www.w3.org/Graphics/SVG/1.1/DTD/svg11.dtd">
<svg width="100%" height="100%" viewBox="0 0 441 232" version="1.1" xmlns="http://www.w3.org/2000/svg" xmlns:xlink="http://www.w3.org/1999/xlink" xml:space="preserve" style="fill-rule:evenodd;clip-rule:evenodd;stroke-linejoin:round;stroke-miterlimit:1.41421;">
    <g transform="matrix(3.21782,0,0,3.21782,-175.126,-79.4018)">
        <path d="M138.688,55.885C140.445,54.715 142.199,53.253 143.955,52.083C144.247,54.13 143.662,57.348 144.247,59.104C145.417,62.907 149.221,63.785 152.439,65.54C154.486,63.492 156.826,65.54 157.997,67.881C159.752,71.977 157.705,71.391 154.778,72.854C150.098,75.194 146.588,76.948 143.955,81.63C141.615,85.14 143.077,87.774 142.199,91.283C141.029,96.55 136.642,94.793 133.715,94.501C131.375,86.895 122.306,93.331 116.748,93.916C112.067,94.501 107.094,93.916 102.413,93.038C99.196,92.746 94.053,89.237 91.127,89.821C89.08,90.114 88.202,93.624 85.861,94.209C84.106,94.793 79.595,93.916 78.132,93.624C79.01,90.114 81.35,87.774 80.473,84.555C79.888,81.337 76.963,78.411 76.378,74.902C75.5,68.172 77.84,60.275 83.105,56.179C92.76,48.865 110.021,47.987 121.428,50.327C126.402,51.205 134.008,52.96 138.104,56.179" style="fill:rgb(82,70,67);"/>
    </g>
    <g transform="matrix(3.21782,0,0,3.21782,-175.126,-79.4018)">
        <path d="M61.774,73.577C64.444,74.31 68.977,75.01 69.787,71.366C70.331,68.921 67.431,66.195 65.33,68.346C62.658,71.08 66.024,75.576 69.267,75.461C73.313,75.318 74.177,70.215 74.219,67.075C74.232,66.087 72.696,65.935 72.683,66.929C72.66,68.593 72.52,70.325 71.792,71.846C70.534,74.473 66.605,74.555 66.064,71.271C65.871,70.098 66.931,68.294 68.045,69.666C68.809,70.606 68.042,71.985 67.107,72.416C65.723,73.053 63.705,72.513 62.31,72.129C61.357,71.868 60.816,73.314 61.774,73.577" style="fill:rgb(82,70,67);fill-rule:nonzero;"/>
    </g>
    <g transform="matrix(3.21782,0,0,3.21782,-175.126,-79.4018)">
        <path d="M143.916,65.72C143.152,66.016 141.697,66.668 142.19,67.755C142.503,68.443 143.447,68.543 144.089,68.346C144.487,68.224 144.793,67.899 144.714,67.452C144.649,67.081 144.222,66.703 143.821,66.826C143.727,66.855 143.635,66.876 143.538,66.89C143.368,66.917 143.649,66.884 143.47,66.892C143.283,66.901 143.426,66.893 143.423,66.896C143.342,66.866 143.353,66.876 143.455,66.928C143.382,66.873 143.398,66.899 143.504,67.006C143.617,67.106 143.664,67.237 143.643,67.4C143.531,67.643 143.514,67.705 143.593,67.585C143.582,67.599 143.57,67.614 143.559,67.627C143.604,67.587 143.651,67.55 143.7,67.516C143.973,67.347 144.281,67.23 144.579,67.115C145.504,66.757 144.84,65.363 143.916,65.72" style="fill:rgb(255,236,188);fill-rule:nonzero;"/>
    </g>
    <g transform="matrix(3.21782,0,0,3.21782,-175.126,-79.4018)">
        <path d="M121.402,80.031C122.139,79.54 122.876,78.926 123.613,78.434C123.736,79.294 123.49,80.645 123.736,81.383C124.228,82.98 125.825,83.348 127.176,84.086C128.036,83.226 129.019,84.086 129.51,85.069C130.248,86.789 129.388,86.543 128.159,87.157C126.194,88.14 124.719,88.877 123.613,90.843C122.631,92.317 123.245,93.423 122.876,94.896C122.385,97.108 120.542,96.37 119.314,96.248C118.331,93.054 114.522,95.757 112.188,96.002C110.222,96.248 108.134,96.002 106.168,95.634C104.817,95.511 102.657,94.037 101.429,94.282C100.569,94.405 100.2,95.879 99.217,96.125C98.48,96.37 96.586,96.002 95.971,95.879C96.34,94.405 97.322,93.423 96.954,92.071C96.709,90.719 95.481,89.491 95.235,88.017C94.866,85.191 95.849,81.875 98.06,80.155C102.114,77.083 109.363,76.714 114.153,77.697C116.242,78.066 119.436,78.803 121.156,80.155" style="fill:rgb(149,128,124);"/>
    </g>
    <g transform="matrix(3.21782,0,0,3.21782,-175.126,-79.4018)">
        <path d="M89.102,87.46C90.223,87.768 92.127,88.062 92.467,86.532C92.695,85.505 91.477,84.36 90.595,85.263C89.473,86.412 90.887,88.299 92.248,88.252C93.948,88.191 94.31,86.048 94.329,84.73C94.334,84.314 93.688,84.251 93.683,84.668C93.674,85.367 93.615,86.094 93.309,86.733C92.781,87.836 91.13,87.871 90.903,86.492C90.822,85.999 91.268,85.242 91.736,85.818C92.056,86.212 91.734,86.792 91.341,86.973C90.76,87.24 89.913,87.013 89.327,86.852C88.927,86.742 88.7,87.35 89.102,87.46" style="fill:rgb(149,128,124);fill-rule:nonzero;"/>
    </g>
    <g transform="matrix(3.21782,0,0,3.21782,-175.126,-79.4018)">
        <path d="M123.597,84.161C123.281,84.289 122.708,84.531 122.862,84.981C122.972,85.305 123.388,85.34 123.669,85.264C124.069,85.156 123.96,84.517 123.557,84.625C123.397,84.669 123.345,84.585 123.415,84.8C123.414,84.971 123.466,84.997 123.573,84.878C123.671,84.828 123.772,84.785 123.875,84.746C124.262,84.59 123.983,84.005 123.597,84.161" style="fill:rgb(82,70,67);fill-rule:nonzero;"/>
    </g>
    <g transform="matrix(3.21782,0,0,3.21782,-175.126,-79.4018)">
        <path d="M153.625,79.901C152.921,79.432 152.218,78.846 151.515,78.378C151.398,79.198 151.632,80.487 151.398,81.191C150.929,82.714 149.405,83.066 148.116,83.769C147.295,82.949 146.358,83.769 145.889,84.707C145.186,86.348 146.006,86.113 147.178,86.699C149.054,87.637 150.46,88.34 151.515,90.216C152.453,91.622 151.867,92.677 152.218,94.083C152.687,96.193 154.445,95.489 155.617,95.373C156.555,92.325 160.188,94.904 162.416,95.138C164.291,95.373 166.283,95.138 168.159,94.786C169.448,94.67 171.508,93.263 172.68,93.497C173.501,93.615 173.853,95.021 174.79,95.255C175.493,95.489 177.301,95.138 177.887,95.021C177.535,93.615 176.598,92.677 176.949,91.388C177.183,90.098 178.355,88.926 178.59,87.52C178.942,84.824 178.004,81.66 175.894,80.019C172.026,77.088 165.111,76.736 160.54,77.674C158.547,78.026 155.5,78.729 153.859,80.019" style="fill:rgb(149,128,124);"/>
    </g>
    <g transform="matrix(3.21782,0,0,3.21782,-175.126,-79.4018)">
        <path d="M184.28,86.396C183.757,86.54 183.187,86.677 182.643,86.601C182.189,86.538 181.809,86.27 181.829,85.771C181.856,85.127 182.71,84.984 182.745,85.857C182.796,87.115 181.156,87.485 180.527,86.499C180.144,85.9 180.079,85.079 180.07,84.385C180.065,83.991 179.449,83.929 179.454,84.327C179.471,85.585 179.773,87.622 181.381,87.745C182.687,87.845 184.072,86.056 183.052,84.93C182.25,84.045 181.033,85.051 181.216,86.051C181.488,87.535 183.316,87.299 184.387,87.005C184.768,86.9 184.664,86.291 184.28,86.396" style="fill:rgb(149,128,124);fill-rule:nonzero;"/>
    </g>
    <g transform="matrix(3.21782,0,0,3.21782,-175.126,-79.4018)">
        <path d="M151.29,84.411C151.454,84.477 151.577,84.645 151.666,84.434C151.741,84.257 151.74,84.331 151.622,84.299C151.24,84.197 151.023,84.776 151.408,84.879C151.685,84.954 152.102,84.964 152.23,84.639C152.403,84.198 151.806,83.953 151.505,83.831C151.135,83.682 150.922,84.262 151.29,84.411" style="fill:rgb(82,70,67);fill-rule:nonzero;"/>
    </g>
</svg>
