<svg viewBox="0 0 441 232" xmlns="http://www.w3.org/2000/svg" fill-rule="evenodd" clip-rule="evenodd" stroke-linejoin="round" stroke-miterlimit="1.414"><path d="M152.3 210.098c-5.487 3.657-10.97 8.225-16.46 11.882-.91-6.397.917-16.453-.91-21.94-3.658-11.885-15.542-14.63-25.598-20.114-6.4 6.4-13.713 0-17.372-7.315-5.485-12.8.912-10.96 10.06-15.54 14.624-7.31 25.593-12.79 33.82-27.42 7.317-10.97 2.745-19.2 5.49-30.16 3.655-16.46 17.367-10.97 26.51-10.05 7.314 23.77 35.654 3.66 53.023 1.83 14.628-1.82 30.17 0 44.797 2.75 10.053.92 26.128 11.88 35.27 10.06 6.396-.91 9.14-11.88 16.455-13.71 5.484-1.82 19.584.92 24.156 1.83-2.74 10.97-10.05 18.28-7.31 28.34 1.83 10.06 10.97 19.2 12.8 30.17 2.74 21.028-4.57 45.71-21.03 58.51-30.17 22.856-84.1 25.6-119.75 18.287-15.54-2.744-39.31-8.23-52.11-18.287" fill="#524643"/><path d="M392.657 154.81c-8.344-2.293-22.51-4.477-25.044 6.91-1.697 7.64 7.366 16.156 13.928 9.438 8.36-8.544-2.16-22.594-12.3-22.235-12.64.447-15.34 16.394-15.47 26.207-.04 3.087 4.77 3.562 4.81.456.07-5.203.51-10.613 2.78-15.366 3.94-8.21 16.22-8.465 17.91 1.797.61 3.666-2.71 9.303-6.19 5.016-2.39-2.938.01-7.247 2.93-8.594 4.33-2 10.63-.31 14.99.89 2.98.82 4.67-3.7 1.68-4.52" fill="#524643" fill-rule="nonzero"/><path d="M145.957 171.78c-2.903-.01-5.594.453-7.953 1.693-2.37 1.21-4.288 3.135-5.516 5.778-.01-2.97 2.1-5.8 4.797-7.16 2.706-1.39 6.02-1.53 8.672-.31" fill="#FFECBC" fill-rule="nonzero"/><path d="M207.063 73.626c-2.644 1.76-5.28 3.96-7.922 5.72-.44-3.08.45-7.92-.44-10.56-1.76-5.722-7.47-7.04-12.31-9.68-3.08 3.077-6.6 0-8.36-3.52-2.64-6.163.44-5.28 4.84-7.48 7.04-3.52 12.32-6.16 16.28-13.202 3.53-5.28 1.33-9.24 2.65-14.52 1.76-7.92 8.36-5.28 12.76-4.84 3.52 11.44 17.16 1.76 25.52.88 7.04-.88 14.52 0 21.56 1.32 4.84.44 12.58 5.72 16.98 4.842 3.08-.444 4.4-5.722 7.92-6.603 2.64-.88 9.43.44 11.63.88-1.32 5.28-4.83 8.8-3.52 13.64.88 4.842 5.28 9.242 6.16 14.52 1.32 10.122-2.2 22-10.12 28.16-14.52 11.003-40.48 12.322-57.64 8.803-7.48-1.32-18.92-3.96-25.08-8.803" fill="#524643"/><path d="M322.75 47.017c-4.015-1.103-10.834-2.153-12.05 3.325-.818 3.678 3.54 7.778 6.7 4.544 4.02-4.113-1.043-10.875-5.918-10.703-6.088.215-7.388 7.89-7.45 12.615-.022 1.485 2.29 1.713 2.31.22.034-2.504.243-5.11 1.34-7.398 1.89-3.95 7.803-4.075 8.62.866.286 1.765-1.308 4.478-2.986 2.412-1.147-1.412.006-3.487 1.416-4.134 2.078-.96 5.112-.147 7.212.43 1.432.395 2.247-1.78.807-2.177" fill="#524643" fill-rule="nonzero"/><path d="M204.01 55.186c-2.747-.06-5.306 1.034-6.48 3.594.014-.7.245-1.416.667-2.013.413-.606 1.007-1.072 1.64-1.434 1.313-.64 2.892-.753 4.173-.147" fill="#FFECBC" fill-rule="nonzero"/><path d="M85.724 189.326l-1.298 1.03-16.84-.368 6.23 7.86-1.223.97-7.727-9.745 1.298-1.03 16.84.368-6.93-8.74 1.224-.97 8.426 10.63zm-8.84-11.27l-1.51.686-16.253-4.42 4.16 9.132-1.42.646-5.14-11.323 1.51-.685 16.26 4.42-4.61-10.156 1.42-.647 5.61 12.34zm-5.827-13.004l-1.633.28-14.603-8.396 1.7 9.886-1.54.265-2.1-12.257 1.63-.28 14.61 8.395-1.89-10.995 1.54-.265 2.3 13.367zM68.76 151l-1.652-.127-12.105-11.714-.77 10-1.558-.12.954-12.4 1.65.12 12.1 11.71.85-11.13 1.56.12L68.76 151zm1.26-14.405l-1.587-.474-9.348-14.01-2.872 9.61-1.498-.44 3.56-11.91 1.588.48 9.348 14.02 3.2-10.69 1.5.45-3.88 13zm4.624-14.285l-1.52-.658-7.618-15.024-3.993 9.203-1.433-.62 4.95-11.41 1.52.66 7.618 15.03 4.44-10.23 1.434.62-5.398 12.44zm6.183-14.08l-1.49-.725-6.95-15.344-4.393 9.02-1.405-.68 5.44-11.18 1.49.73 6.95 15.35 4.88-10.03 1.4.69-5.94 12.2zm6.92-14.005l-1.487-.728-6.92-15.358-4.412 9.01-1.403-.69 5.47-11.17 1.486.72 6.93 15.36 4.91-10.02 1.41.68-5.96 12.18zm7.66-15.565l-1.562-.547-8.682-14.435-3.32 9.467-1.474-.517 4.11-11.738 1.56.55 8.68 14.436 3.69-10.528 1.47.516-4.49 12.8zm79.61-15.03l-.626.496-8.1-.178 3 3.783-.59.47-3.72-4.69.63-.49 8.11.18-3.33-4.2.59-.46 4.06 5.12zm-4.277-5.46l-.727.327-7.82-2.148 1.986 4.4-.69.3-2.47-5.46.72-.33 7.81 2.15-2.21-4.9.68-.31 2.69 5.95zm-2.804-6.318l-.786.132-7.017-4.062.803 4.76-.743.126-.995-5.904.79-.133L167 50.84l-.89-5.294.74-.125 1.086 6.44zm-1.09-6.884l-.793-.067-5.787-5.68-.405 4.81-.74-.06.51-5.96.8.07 5.79 5.68.45-5.35.75.07-.54 6.51zm.667-6.968l-.76-.234-4.456-6.776-1.414 4.616-.717-.22 1.752-5.72.762.232 4.453 6.773 1.572-5.13.72.22-1.912 6.24zm2.264-6.863l-.73-.32-3.654-7.24-1.93 4.426-.688-.3 2.394-5.487.73.318 3.65 7.24 2.14-4.922.69.3-2.61 5.985zm3.005-6.795l-.716-.35-3.34-7.387-2.12 4.338-.674-.33 2.628-5.38.716.35 3.336 7.39 2.356-4.825.677.33-2.863 5.864zm3.296-6.662l-.716-.35-3.336-7.388-2.12 4.338-.675-.33 2.63-5.377.72.35 3.34 7.387 2.36-4.824.68.33-2.86 5.865zm3.687-7.51l-.754-.258-4.21-6.926-1.57 4.565-.71-.24 1.95-5.66.76.26 4.22 6.93 1.75-5.07.71.25-2.12 6.17z" fill="#524643" fill-rule="nonzero"/></svg>