<?xml version="1.0" encoding="UTF-8" standalone="no"?>
<!DOCTYPE svg PUBLIC "-//W3C//DTD SVG 1.1//EN" "http://www.w3.org/Graphics/SVG/1.1/DTD/svg11.dtd">
<svg width="100%" height="100%" viewBox="0 0 441 232" version="1.1" xmlns="http://www.w3.org/2000/svg" xmlns:xlink="http://www.w3.org/1999/xlink" xml:space="preserve" style="fill-rule:evenodd;clip-rule:evenodd;stroke-linejoin:round;stroke-miterlimit:1.41421;">
    <path d="M259.96,108.79C265.45,105.135 270.933,100.566 276.42,96.91C277.333,103.307 275.505,113.363 277.333,118.85C280.99,130.735 292.873,133.48 302.93,138.963C309.33,132.563 316.643,138.963 320.302,146.279C325.787,159.079 319.39,157.239 310.242,161.819C295.618,169.129 284.649,174.609 276.422,189.239C269.105,200.209 273.674,208.439 270.932,219.399C267.274,235.859 253.565,230.369 244.422,229.449C237.108,205.679 208.768,225.789 191.399,227.619C176.769,229.439 161.229,227.619 146.599,224.869C136.539,223.949 120.469,212.989 111.329,214.809C104.929,215.719 102.189,226.689 94.869,228.519C89.379,230.349 75.279,227.601 70.709,226.689C73.449,215.719 80.759,208.409 78.019,198.349C76.189,188.291 67.049,179.149 65.219,168.181C62.469,147.145 69.789,122.471 86.239,109.671C116.409,86.811 170.349,84.071 205.999,91.381C221.539,94.121 245.309,99.606 258.109,109.665" style="fill:rgb(82,70,67);"/>
    <path d="M19.605,164.082C27.949,166.376 42.115,168.56 44.645,157.172C46.345,149.532 37.283,141.012 30.718,147.735C22.368,156.279 32.886,170.329 43.021,169.969C55.671,169.519 58.371,153.569 58.501,143.759C58.541,140.669 53.741,140.199 53.701,143.299C53.631,148.499 53.191,153.909 50.921,158.659C46.991,166.869 34.711,167.119 33.021,156.859C32.421,153.189 35.731,147.549 39.221,151.839C41.611,154.769 39.211,159.079 36.291,160.429C31.971,162.419 25.661,160.729 21.301,159.529C18.321,158.709 16.631,163.229 19.631,164.049" style="fill:rgb(82,70,67);fill-rule:nonzero;"/>
    <path d="M276.3,139.526C273.91,140.451 269.36,142.488 270.905,145.886C271.88,148.036 274.83,148.348 276.835,147.732C278.083,147.352 279.04,146.335 278.793,144.938C278.59,143.778 277.255,142.598 275.999,142.982C275.699,143.072 275.409,143.138 275.109,143.185C274.569,143.265 275.449,143.163 274.889,143.188C274.309,143.216 274.749,143.191 274.739,143.201C274.479,143.111 274.519,143.141 274.839,143.301C274.609,143.131 274.659,143.211 274.989,143.551C275.339,143.871 275.479,144.271 275.419,144.781C275.069,145.541 275.009,145.741 275.259,145.361C275.219,145.411 275.179,145.451 275.149,145.491C275.289,145.371 275.429,145.251 275.589,145.151C276.439,144.621 277.399,144.261 278.339,143.901C281.229,142.781 279.159,138.431 276.269,139.541" style="fill:rgb(255,236,188);fill-rule:nonzero;"/>
    <path d="M336.12,194.332C339.533,194.302 343.255,192.522 344.97,189.42C345.927,187.59 346.058,185.476 344.52,183.695C342.355,181.073 339.59,181.023 339.202,176.865C338.542,172.61 340.63,169.329 344.072,167.585C344.072,167.585 343.108,167.888 341.582,168.575C339.24,169.765 338.008,171.495 336.582,173.775C333.915,178.707 337.277,183.195 340.977,185.845C344.374,188.273 339.73,193.751 336.121,194.332M325.741,185.845C329.141,188.273 324.501,193.755 320.891,194.332C324.311,194.304 328.031,192.526 329.741,189.422C330.701,187.595 330.831,185.476 329.291,183.695C327.131,181.073 324.361,181.025 323.971,176.865C323.311,172.613 325.401,169.329 328.841,167.588C328.841,167.588 327.881,167.888 326.351,168.576C324.011,169.766 322.781,171.494 321.361,173.776C318.691,178.706 322.051,183.196 325.761,185.846M351.401,194.332C354.821,194.302 358.541,192.522 360.251,189.42C361.211,187.59 361.341,185.476 359.801,183.695C357.641,181.073 354.871,181.023 354.491,176.865C353.825,172.61 355.915,169.329 359.361,167.585C359.361,167.585 358.391,167.888 356.865,168.575C354.525,169.765 353.295,171.495 351.868,173.775C349.198,178.707 352.558,183.195 356.258,185.845C359.658,188.273 355.008,193.751 351.405,194.332M418.935,195.85L398.575,195.85C397.135,195.85 395.899,196.585 395.335,197.804L393.449,197.804L377.339,201.748C377.089,201.12 376.472,200.735 375.709,200.735L305.669,200.735C304.619,200.735 303.839,201.541 303.929,202.585L305.984,226.405C306.074,227.448 307.004,228.335 308.054,228.335L373.324,228.335C374.368,228.335 375.299,227.455 375.394,226.407L376.984,207.982L393.994,200.982L395.327,200.982C395.893,202.202 397.127,203.179 398.567,203.179L418.927,203.179C420.902,203.179 422.467,201.489 422.467,199.519L422.467,199.399C422.467,197.419 420.902,195.849 418.927,195.849" style="fill:rgb(82,70,67);fill-rule:nonzero;"/>
</svg>
