<?xml version="1.0" encoding="UTF-8" standalone="no"?>
<!DOCTYPE svg PUBLIC "-//W3C//DTD SVG 1.1//EN" "http://www.w3.org/Graphics/SVG/1.1/DTD/svg11.dtd">
<svg width="100%" height="100%" viewBox="0 0 441 232" version="1.1" xmlns="http://www.w3.org/2000/svg" xmlns:xlink="http://www.w3.org/1999/xlink" xml:space="preserve" style="fill-rule:evenodd;clip-rule:evenodd;stroke-linejoin:round;stroke-miterlimit:1.41421;">
    <path d="M310.016,108.79C315.503,105.135 320.988,100.566 326.476,96.91C327.388,103.307 325.559,113.363 327.388,118.85C331.044,130.735 342.928,133.48 352.984,138.963C359.384,132.563 366.697,138.963 370.356,146.279C375.841,159.079 369.444,157.239 360.296,161.819C345.672,169.129 334.703,174.609 326.476,189.239C319.159,200.209 323.728,208.439 320.988,219.399C317.328,235.859 303.618,230.369 294.475,229.449C287.163,205.679 258.822,225.789 241.453,227.619C226.825,229.443 211.283,227.619 196.656,224.872C186.6,223.959 170.531,212.992 161.386,214.818C154.986,215.734 152.246,226.703 144.931,228.531C139.451,230.361 125.351,227.618 120.781,226.706C123.531,215.736 130.841,208.426 128.101,198.366C126.281,188.308 117.131,179.166 115.311,168.198C112.571,147.163 119.881,122.488 136.341,109.688C166.511,86.828 220.451,84.088 256.101,91.398C271.644,94.138 295.411,99.624 308.211,109.683" style="fill:rgb(82,70,67);"/>
    <path d="M69.66,164.082C78.003,166.376 92.17,168.56 94.7,157.172C96.4,149.532 87.337,141.012 80.772,147.735C72.422,156.279 82.942,170.329 93.075,169.969C105.719,169.519 108.419,153.569 108.553,143.759C108.593,140.669 103.791,140.199 103.75,143.299C103.68,148.499 103.24,153.909 100.966,158.659C97.034,166.869 84.756,167.119 83.066,156.859C82.462,153.189 85.776,147.552 89.259,151.839C91.639,154.776 89.239,159.085 86.319,160.432C81.989,162.422 75.689,160.737 71.329,159.537C68.349,158.719 66.659,163.237 69.649,164.06" style="fill:rgb(82,70,67);fill-rule:nonzero;"/>
    <path d="M326.353,139.526C323.966,140.451 319.416,142.488 320.959,145.886C321.929,148.036 324.879,148.348 326.889,147.732C328.129,147.352 329.089,146.335 328.839,144.938C328.629,143.778 327.299,142.598 326.039,142.982C325.749,143.072 325.459,143.138 325.159,143.185C324.619,143.265 325.499,143.163 324.939,143.188C324.359,143.216 324.801,143.191 324.792,143.201C324.542,143.111 324.572,143.141 324.892,143.301C324.662,143.131 324.712,143.211 325.047,143.551C325.399,143.871 325.543,144.271 325.48,144.781C325.13,145.541 325.074,145.741 325.32,145.361C325.287,145.411 325.25,145.451 325.216,145.491C325.356,145.371 325.498,145.251 325.656,145.151C326.506,144.621 327.466,144.261 328.401,143.901C331.291,142.781 329.217,138.431 326.329,139.541" style="fill:rgb(255,236,188);fill-rule:nonzero;"/>
</svg>
