<?xml version="1.0" encoding="UTF-8" standalone="no"?>
<!DOCTYPE svg PUBLIC "-//W3C//DTD SVG 1.1//EN" "http://www.w3.org/Graphics/SVG/1.1/DTD/svg11.dtd">
<svg width="100%" height="100%" viewBox="0 0 441 232" version="1.1" xmlns="http://www.w3.org/2000/svg" xmlns:xlink="http://www.w3.org/1999/xlink" xml:space="preserve" xmlns:serif="http://www.serif.com/" style="fill-rule:evenodd;clip-rule:evenodd;stroke-linejoin:round;stroke-miterlimit:1.41421;">
    <g transform="matrix(3.03253,0,0,3.03253,290.19,212.076)">
        <path d="M0,-31.961C1.714,-33.103 3.425,-34.53 5.137,-35.67C5.423,-33.674 4.852,-30.534 5.423,-28.822C6.564,-25.112 10.274,-24.257 13.413,-22.544C15.411,-24.541 17.693,-22.544 18.835,-20.26C20.547,-16.265 18.55,-16.836 15.696,-15.409C11.13,-13.127 7.706,-11.415 5.137,-6.848C2.855,-3.424 4.281,-0.856 3.425,2.569C2.284,7.705 -1.997,5.993 -4.85,5.708C-7.134,-1.712 -15.98,4.566 -21.402,5.137C-25.968,5.708 -30.818,5.137 -35.385,4.281C-38.523,3.995 -43.54,0.572 -46.394,1.142C-48.391,1.428 -49.247,4.851 -51.531,5.422C-53.243,5.993 -57.643,5.137 -59.07,4.851C-58.214,1.428 -55.932,-0.856 -56.787,-3.995C-57.357,-7.134 -60.211,-9.987 -60.781,-13.412C-61.638,-19.975 -59.355,-27.68 -54.219,-31.675C-44.801,-38.809 -27.964,-39.666 -16.836,-37.383C-11.984,-36.527 -4.565,-34.814 -0.57,-31.675" style="fill:rgb(81,69,66);fill-rule:nonzero;"/>
    </g>
    <g transform="matrix(3.03253,0,0,3.03253,62.6701,150.707)">
        <path d="M0,5.534C2.715,6.28 6.888,6.896 7.817,3.377C8.483,0.85 5.535,-1.447 3.469,0.431C0.559,3.076 4.382,7.309 7.309,7.371C11.25,7.455 12.101,2.083 12.14,-0.809C12.153,-1.775 10.654,-1.921 10.641,-0.951C10.621,0.561 10.454,2.025 9.951,3.46C8.884,6.506 5.041,6.565 4.185,3.284C3.832,1.934 4.972,0.533 6.118,1.719C6.992,2.624 6.065,3.985 5.202,4.401C3.871,5.043 1.861,4.489 0.523,4.122C-0.408,3.866 -0.936,5.277 0,5.534" style="fill:rgb(81,69,66);fill-rule:nonzero;"/>
    </g>
    <g transform="matrix(3.03253,0,0,3.03253,305.655,152.203)">
        <path d="M0,-2.624C-0.778,-2.327 -2.152,-1.7 -1.677,-0.622C-1.337,0.146 -0.292,0.085 0.361,-0.123C0.752,-0.248 0.876,-0.794 0.718,-1.127C0.524,-1.534 0.105,-1.608 -0.286,-1.483C-0.013,-1.57 -0.301,-1.491 -0.376,-1.481C-0.569,-1.455 -0.221,-1.48 -0.349,-1.478C-0.393,-1.478 -0.438,-1.481 -0.482,-1.484C-0.546,-1.49 -0.709,-1.528 -0.443,-1.467C-0.479,-1.475 -0.514,-1.487 -0.548,-1.5C-0.656,-1.542 -0.36,-1.383 -0.484,-1.469C-0.372,-1.362 -0.34,-1.333 -0.389,-1.384C-0.434,-1.44 -0.41,-1.402 -0.317,-1.269C-0.215,-1.087 -0.273,-0.905 -0.359,-0.741C-0.33,-0.795 -0.222,-0.901 -0.391,-0.723C-0.353,-0.763 -0.309,-0.798 -0.266,-0.832C-0.102,-0.961 -0.338,-0.795 -0.21,-0.872C-0.135,-0.918 -0.057,-0.958 0.021,-0.997C0.223,-1.1 0.435,-1.183 0.646,-1.264C1.03,-1.41 1.169,-1.919 1.003,-2.267C0.817,-2.659 0.383,-2.77 0,-2.624" style="fill:rgb(255,236,188);fill-rule:nonzero;"/>
    </g>
    <g transform="matrix(3.03253,0,0,3.03253,162.426,162.426)">
        <path d="M0,-3.06C0.4,-3.06 0.724,-3.384 0.724,-3.785C0.724,-4.185 0.4,-4.509 0,-4.509C-0.401,-4.509 -0.725,-4.185 -0.725,-3.785C-0.725,-3.384 -0.401,-3.06 0,-3.06M0.23,-1.479C0.513,-1.196 0.972,-1.196 1.255,-1.479C1.538,-1.762 1.538,-2.221 1.255,-2.504C0.972,-2.787 0.513,-2.787 0.23,-2.504C-0.053,-2.221 -0.053,-1.762 0.23,-1.479M2.536,-2.456C3.256,-2.456 3.84,-3.04 3.84,-3.76C3.84,-4.481 3.256,-5.065 2.536,-5.065C1.815,-5.065 1.231,-4.481 1.231,-3.76C1.231,-3.04 1.815,-2.456 2.536,-2.456M2.536,-0.524C2.936,-0.524 3.26,-0.848 3.26,-1.248C3.26,-1.649 2.936,-1.973 2.536,-1.973C2.136,-1.973 1.811,-1.649 1.811,-1.248C1.811,-0.848 2.136,-0.524 2.536,-0.524M3.817,-1.479C4.1,-1.196 4.558,-1.196 4.841,-1.479C5.124,-1.762 5.124,-2.221 4.841,-2.504C4.558,-2.787 4.1,-2.787 3.817,-2.504C3.534,-2.221 3.534,-1.762 3.817,-1.479M5.796,-3.785C5.796,-4.185 5.472,-4.509 5.072,-4.509C4.672,-4.509 4.347,-4.185 4.347,-3.785C4.347,-3.384 4.672,-3.06 5.072,-3.06C5.472,-3.06 5.796,-3.384 5.796,-3.785M4.841,-6.09C4.558,-6.373 4.1,-6.373 3.817,-6.09C3.534,-5.807 3.534,-5.348 3.817,-5.065C4.1,-4.782 4.558,-4.782 4.841,-5.065C5.124,-5.348 5.124,-5.807 4.841,-6.09M2.536,-7.045C2.136,-7.045 1.811,-6.721 1.811,-6.321C1.811,-5.92 2.136,-5.596 2.536,-5.596C2.936,-5.596 3.26,-5.92 3.26,-6.321C3.26,-6.721 2.936,-7.045 2.536,-7.045M1.255,-6.09C0.972,-6.373 0.513,-6.373 0.23,-6.09C-0.053,-5.807 -0.053,-5.348 0.23,-5.065C0.513,-4.782 0.972,-4.782 1.255,-5.065C1.538,-5.348 1.538,-5.807 1.255,-6.09M14.224,8.202C14.715,8.202 15.112,7.805 15.112,7.314C15.112,6.824 14.715,6.427 14.224,6.427C13.734,6.427 13.337,6.824 13.337,7.314C13.337,7.805 13.734,8.202 14.224,8.202M14.507,10.139C14.853,10.486 15.415,10.486 15.762,10.139C16.109,9.792 16.109,9.23 15.762,8.884C15.415,8.537 14.853,8.537 14.507,8.884C14.16,9.23 14.16,9.792 14.507,10.139M17.331,8.942C18.213,8.942 18.929,8.226 18.929,7.344C18.929,6.462 18.213,5.746 17.331,5.746C16.449,5.746 15.733,6.462 15.733,7.344C15.733,8.226 16.449,8.942 17.331,8.942M17.331,11.309C17.821,11.309 18.219,10.911 18.219,10.421C18.219,9.931 17.821,9.534 17.331,9.534C16.841,9.534 16.443,9.931 16.443,10.421C16.443,10.911 16.841,11.309 17.331,11.309M18.9,10.139C19.247,10.486 19.809,10.486 20.155,10.139C20.502,9.792 20.502,9.23 20.155,8.884C19.809,8.537 19.247,8.537 18.9,8.884C18.554,9.23 18.554,9.792 18.9,10.139M21.325,7.314C21.325,6.824 20.928,6.427 20.438,6.427C19.947,6.427 19.55,6.824 19.55,7.314C19.55,7.805 19.947,8.202 20.438,8.202C20.928,8.202 21.325,7.805 21.325,7.314M22.068,-11.018C22.379,-11.329 22.379,-11.834 22.068,-12.145C21.757,-12.456 21.252,-12.456 20.941,-12.145C20.63,-11.834 20.63,-11.329 20.941,-11.018C21.252,-10.706 21.757,-10.706 22.068,-11.018M23.119,-13.554C23.119,-13.994 22.762,-14.351 22.322,-14.351C21.881,-14.351 21.525,-13.994 21.525,-13.554C21.525,-13.114 21.881,-12.757 22.322,-12.757C22.762,-12.757 23.119,-13.114 23.119,-13.554M22.068,-16.09C21.757,-16.401 21.252,-16.401 20.941,-16.09C20.63,-15.779 20.63,-15.274 20.941,-14.963C21.252,-14.652 21.757,-14.652 22.068,-14.963C22.379,-15.274 22.379,-15.779 22.068,-16.09M20.329,-10.764C20.329,-11.204 19.972,-11.561 19.532,-11.561C19.092,-11.561 18.735,-11.204 18.735,-10.764C18.735,-10.324 19.092,-9.967 19.532,-9.967C19.972,-9.967 20.329,-10.324 20.329,-10.764M20.155,4.49C19.809,4.143 19.247,4.143 18.9,4.49C18.554,4.837 18.554,5.399 18.9,5.745C19.247,6.092 19.809,6.092 20.155,5.745C20.502,5.399 20.502,4.837 20.155,4.49M19.532,-14.962C18.74,-14.962 18.097,-14.32 18.097,-13.527C18.097,-12.735 18.74,-12.093 19.532,-12.093C20.324,-12.093 20.967,-12.735 20.967,-13.527C20.967,-14.32 20.324,-14.962 19.532,-14.962M19.532,-17.141C19.092,-17.141 18.735,-16.784 18.735,-16.344C18.735,-15.903 19.092,-15.546 19.532,-15.546C19.972,-15.546 20.329,-15.903 20.329,-16.344C20.329,-16.784 19.972,-17.141 19.532,-17.141M18.123,-16.09C17.812,-16.401 17.307,-16.401 16.996,-16.09C16.685,-15.779 16.685,-15.274 16.996,-14.963C17.307,-14.652 17.812,-14.652 18.123,-14.963C18.434,-15.274 18.434,-15.779 18.123,-16.09M18.123,-12.145C17.812,-12.456 17.307,-12.456 16.996,-12.145C16.685,-11.834 16.685,-11.329 16.996,-11.018C17.307,-10.706 17.812,-10.706 18.123,-11.018C18.434,-11.329 18.434,-11.834 18.123,-12.145M17.331,3.32C16.841,3.32 16.443,3.718 16.443,4.208C16.443,4.698 16.841,5.095 17.331,5.095C17.821,5.095 18.219,4.698 18.219,4.208C18.219,3.718 17.821,3.32 17.331,3.32M15.945,-13.554C15.945,-13.114 16.302,-12.757 16.742,-12.757C17.182,-12.757 17.539,-13.114 17.539,-13.554C17.539,-13.994 17.182,-14.351 16.742,-14.351C16.302,-14.351 15.945,-13.994 15.945,-13.554M14.507,4.49C14.16,4.837 14.16,5.399 14.507,5.745C14.853,6.092 15.415,6.092 15.762,5.745C16.109,5.399 16.109,4.837 15.762,4.49C15.415,4.143 14.853,4.143 14.507,4.49M-4.434,-17.915C-4.434,-20.972 -0.888,-22.195 1.68,-22.317C4.248,-22.439 30.904,-22.317 32.738,-22.317C34.572,-22.317 35.672,-18.649 35.672,-18.649L30.537,-18.649C27.847,-18.649 27.724,-5.198 27.847,3.116C27.969,11.431 28.703,15.955 27.235,17.667C25.768,19.379 19.41,15.222 15.13,17.3C10.85,19.379 2.903,18.645 0.824,16.444C-1.255,14.243 -3.089,16.567 -4.434,16.567C-5.779,16.567 -4.434,-14.858 -4.434,-17.915" style="fill:rgb(179,178,167);fill-rule:nonzero;"/>
    </g>
    <g transform="matrix(3.03253,0,0,3.03253,355.926,176.494)">
        <path d="M0,4.45C0.106,3.702 0.143,3.495 0.7,1.637C0.988,0.679 2.229,-2.312 2.415,-3.055C2.601,-3.798 2.898,-5.545 2.898,-7.662L2.898,-12.158C2.898,-12.158 2.921,-12.533 2.797,-12.658C2.797,-12.658 2.65,-12.809 2.65,-12.992L2.65,-13.152C2.65,-13.152 2.685,-13.326 2.806,-13.379C2.926,-13.432 3.073,-13.468 3.215,-13.473L4.384,-13.493L5.553,-13.473C5.696,-13.468 5.843,-13.432 5.963,-13.379C6.083,-13.326 6.119,-13.152 6.119,-13.152L6.119,-12.992C6.119,-12.809 5.972,-12.658 5.972,-12.658C5.847,-12.533 5.871,-12.158 5.871,-12.158L5.871,-7.662C5.871,-5.545 6.168,-3.798 6.354,-3.055C6.539,-2.312 7.781,0.679 8.068,1.637C8.626,3.495 8.663,3.702 8.769,4.45C8.876,5.208 8.917,7.794 8.917,7.794L8.917,15.82C8.917,16.303 8.806,16.971 8.62,17.38C8.434,17.789 7.58,17.826 6.948,17.863C6.316,17.9 4.384,17.943 4.384,17.943C4.384,17.943 2.452,17.9 1.82,17.863C1.189,17.826 0.334,17.789 0.149,17.38C-0.037,16.971 -0.149,16.303 -0.149,15.82L-0.149,7.794C-0.149,7.794 -0.108,5.208 0,4.45" style="fill:rgb(81,69,66);fill-rule:nonzero;"/>
    </g>
    <g transform="matrix(3.03253,0,0,3.03253,359.934,177.062)">
        <path d="M0,1.874C0,2.437 1.334,1.902 3.063,1.902C4.791,1.902 6.125,2.437 6.125,1.874C6.125,1.311 4.791,-0.563 3.063,-0.563C1.334,-0.563 0,1.311 0,1.874" style="fill:rgb(179,178,167);fill-rule:nonzero;"/>
    </g>
    <g transform="matrix(3.03253,0,0,3.03253,363.409,150.634)">
        <path d="M0,-2.209C-0.26,-2.641 -0.043,-3.685 0,-4.261C0.044,-4.838 0.087,-5.56 0.348,-5.757C0.607,-5.954 1.456,-6.111 1.917,-6.111C2.342,-6.111 3.226,-5.954 3.486,-5.757C3.746,-5.56 3.79,-4.838 3.833,-4.261C3.877,-3.685 4.094,-2.641 3.833,-2.209C3.598,-1.818 3.504,-1.048 3.489,-0.902L3.489,1.818C3.489,2.348 3.534,3.193 3.609,3.902C3.59,3.9 3.571,3.899 3.535,3.896C3.406,3.887 2.356,3.877 1.963,3.873C1.94,3.873 1.894,3.873 1.87,3.873C1.478,3.877 0.427,3.887 0.299,3.896C0.263,3.899 0.244,3.9 0.224,3.902C0.3,3.193 0.345,2.348 0.345,1.818L0.345,-0.904C0.328,-1.055 0.234,-1.82 0,-2.209" style="fill:rgb(179,178,167);fill-rule:nonzero;"/>
    </g>
    <g transform="matrix(3.03253,0,0,3.03253,358.152,201.066)">
        <path d="M0,6.135C0,6.325 0.153,6.51 0.342,6.544C2.659,6.831 4.642,6.831 6.959,6.544C7.148,6.51 7.301,6.325 7.301,6.135L7.301,-0.221C7.301,-0.411 7.147,-0.577 6.958,-0.59C4.734,-0.696 2.566,-0.696 0.343,-0.59C0.153,-0.577 0,-0.411 0,-0.221L0,6.135Z" style="fill:rgb(179,178,167);fill-rule:nonzero;"/>
    </g>
</svg>
