<?xml version="1.0" encoding="UTF-8" standalone="no"?>
<!DOCTYPE svg PUBLIC "-//W3C//DTD SVG 1.1//EN" "http://www.w3.org/Graphics/SVG/1.1/DTD/svg11.dtd">
<svg width="100%" height="100%" viewBox="0 0 441 232" version="1.1" xmlns="http://www.w3.org/2000/svg" xmlns:xlink="http://www.w3.org/1999/xlink" xml:space="preserve" style="fill-rule:evenodd;clip-rule:evenodd;stroke-linejoin:round;stroke-miterlimit:1.41421;">
    <path d="M260.37,108.795C265.857,105.141 271.34,100.57 276.83,96.913C277.74,103.31 275.913,113.366 277.74,118.853C281.398,130.738 293.282,133.483 303.338,138.966C309.738,132.57 317.051,138.966 320.71,146.282C326.195,159.082 319.798,157.252 310.65,161.822C296.026,169.135 285.057,174.62 276.83,189.248C269.513,200.22 274.082,208.448 271.34,219.413C267.682,235.873 253.973,230.383 244.83,229.47C237.516,205.704 209.176,225.813 191.807,227.645C177.179,229.47 161.637,227.645 147.01,224.898C136.954,223.985 120.885,213.02 111.74,214.845C105.34,215.76 102.6,226.729 95.285,228.557C89.801,230.382 75.701,227.645 71.129,226.729C73.869,215.759 81.179,208.439 78.439,198.379C76.609,188.319 67.469,179.179 65.639,168.209C62.889,147.179 70.209,122.499 86.659,109.699C116.829,86.839 170.769,84.099 206.419,91.409C221.959,94.149 245.729,99.639 258.529,109.692" style="fill:rgb(82,70,67);"/>
    <path d="M20.013,164.085C28.357,166.375 42.523,168.56 45.053,157.175C46.753,149.535 37.691,141.015 31.126,147.735C22.776,156.282 33.294,170.329 43.429,169.973C56.069,169.526 58.769,153.579 58.899,143.763C58.939,140.676 54.129,140.203 54.089,143.31C54.019,148.51 53.579,153.923 51.299,158.676C47.369,166.886 35.089,167.141 33.399,156.876C32.794,153.213 36.109,147.576 39.591,151.863C41.974,154.801 39.581,159.11 36.656,160.453C32.329,162.448 26.022,160.76 21.666,159.56C18.686,158.745 16.996,163.26 19.989,164.085" style="fill:rgb(82,70,67);fill-rule:nonzero;"/>
    <path d="M276.707,139.53C274.319,140.45 269.769,142.49 271.313,145.885C272.288,148.038 275.238,148.351 277.243,147.735C278.491,147.355 279.448,146.338 279.201,144.941C279.001,143.781 277.671,142.601 276.411,142.991C276.121,143.081 275.831,143.151 275.531,143.191C275.001,143.281 275.881,143.171 275.321,143.201C274.741,143.231 275.191,143.211 275.181,143.221C274.931,143.129 274.961,143.161 275.281,143.321C275.051,143.151 275.101,143.236 275.441,143.571C275.794,143.885 275.937,144.295 275.875,144.801C275.525,145.561 275.472,145.757 275.719,145.381C275.686,145.426 275.649,145.471 275.614,145.511C275.759,145.388 275.904,145.271 276.059,145.161C276.912,144.635 277.871,144.271 278.806,143.911C281.696,142.795 279.621,138.438 276.734,139.551" style="fill:rgb(255,236,188);fill-rule:nonzero;"/>
    <path d="M333.638,142.107C333.638,142.107 357.673,145.523 368.066,129.382C368.896,128.098 369.638,126.692 370.273,125.145C372.166,125.345 374.091,125.46 376.051,125.46C401.451,125.46 422.041,108.245 422.041,87.01C422.041,85.44 421.931,83.895 421.711,82.373C418.971,63.326 399.581,48.56 376.061,48.56C350.671,48.56 330.081,65.776 330.081,87.01C330.081,100.113 337.931,111.68 349.901,118.62C347.951,125.482 343.291,137.426 333.651,142.107" style="fill:rgb(179,179,168);fill-rule:nonzero;"/>
    <path d="M368.554,110.054C366.907,110.054 365.364,109.22 364.466,107.82L353.05,90.026C351.604,87.766 352.26,84.763 354.516,83.313C356.773,81.866 359.779,82.52 361.229,84.779L367.709,94.879L380.819,64.499C381.879,62.029 384.739,60.899 387.199,61.959C389.659,63.019 390.799,65.879 389.729,68.339L373,107.11C372.29,108.758 370.724,109.88 368.934,110.026C368.804,110.036 368.671,110.041 368.54,110.041" style="fill:rgb(82,70,67);fill-rule:nonzero;"/>
</svg>
