<?xml version="1.0" encoding="UTF-8" standalone="no"?>
<!DOCTYPE svg PUBLIC "-//W3C//DTD SVG 1.1//EN" "http://www.w3.org/Graphics/SVG/1.1/DTD/svg11.dtd">
<svg width="100%" height="100%" viewBox="0 0 441 232" version="1.1" xmlns="http://www.w3.org/2000/svg" xmlns:xlink="http://www.w3.org/1999/xlink" xml:space="preserve" style="fill-rule:evenodd;clip-rule:evenodd;stroke-linejoin:round;stroke-miterlimit:1.41421;">
    <g transform="matrix(3.29666,0,0,3.29666,-145.552,-381.967)">
        <path d="M139.767,146.805C141.523,145.635 143.278,144.173 145.033,143.003C145.326,145.05 144.741,148.268 145.326,150.024C146.496,153.827 150.299,154.705 153.517,156.46C155.565,154.413 157.905,156.46 159.076,158.801C160.83,162.897 158.784,162.311 155.857,163.774C151.177,166.114 147.667,167.869 145.033,172.55C142.693,176.06 144.155,178.694 143.278,182.203C142.107,187.47 137.72,185.713 134.794,185.421C132.454,177.816 123.385,184.251 117.827,184.837C113.146,185.421 108.173,184.837 103.492,183.958C100.274,183.666 95.132,180.157 92.206,180.741C90.158,181.034 89.281,184.544 86.94,185.129C85.185,185.713 80.673,184.837 79.21,184.544C80.089,181.034 82.428,178.694 81.551,175.475C80.967,172.257 78.041,169.331 77.456,165.822C76.578,159.093 78.919,151.195 84.184,147.099C93.839,139.785 111.099,138.907 122.507,141.247C127.481,142.125 135.087,143.88 139.183,147.099" style="fill:rgb(82,70,67);"/>
    </g>
    <g transform="matrix(3.29666,0,0,3.29666,-145.552,-381.967)">
        <path d="M62.853,164.498C65.522,165.232 70.056,165.931 70.866,162.287C71.409,159.842 68.51,157.117 66.409,159.267C63.737,162.001 67.102,166.497 70.346,166.382C74.391,166.239 75.256,161.136 75.299,157.996C75.312,157.008 73.775,156.856 73.762,157.85C73.739,159.515 73.599,161.246 72.87,162.767C71.613,165.394 67.684,165.476 67.143,162.192C66.95,161.019 68.01,159.215 69.124,160.588C69.888,161.527 69.12,162.906 68.186,163.337C66.802,163.974 64.784,163.434 63.389,163.051C62.435,162.789 61.895,164.235 62.853,164.498" style="fill:rgb(82,70,67);fill-rule:nonzero;"/>
    </g>
    <g transform="matrix(3.29666,0,0,3.29666,-145.552,-381.967)">
        <path d="M144.995,156.641C144.231,156.936 142.775,157.589 143.269,158.675C143.581,159.364 144.525,159.464 145.167,159.267C145.566,159.144 145.872,158.82 145.793,158.373C145.728,158.001 145.301,157.624 144.899,157.747C144.806,157.776 144.713,157.796 144.617,157.811C144.446,157.838 144.728,157.804 144.548,157.813C144.362,157.822 144.505,157.814 144.502,157.817C144.421,157.786 144.432,157.796 144.534,157.848C144.461,157.794 144.477,157.82 144.583,157.927C144.696,158.026 144.742,158.158 144.722,158.32C144.61,158.563 144.593,158.625 144.671,158.506C144.66,158.52 144.649,158.534 144.638,158.548C144.683,158.508 144.729,158.471 144.779,158.436C145.052,158.267 145.359,158.15 145.658,158.035C146.583,157.677 145.919,156.284 144.995,156.641" style="fill:rgb(255,236,188);fill-rule:nonzero;"/>
    </g>
    <g transform="matrix(3.29666,0,0,3.29666,-145.552,-381.967)">
        <path d="M96.38,161.133L93.811,156.902L93.811,161.133L93.327,161.133L93.327,156.08L93.847,156.08L96.395,160.282L96.395,156.08L96.878,156.08L96.878,161.133L96.38,161.133Z" style="fill:white;fill-rule:nonzero;"/>
    </g>
    <g transform="matrix(3.29666,0,0,3.29666,-145.552,-381.967)">
        <path d="M101.96,160.722C103.124,160.722 104.017,159.784 104.017,158.617C104.017,157.451 103.124,156.505 101.96,156.505C100.796,156.505 99.91,157.451 99.91,158.617C99.91,159.784 100.796,160.722 101.96,160.722M101.96,156.021C103.395,156.021 104.5,157.18 104.5,158.617C104.5,160.047 103.395,161.206 101.96,161.206C100.532,161.206 99.427,160.047 99.427,158.617C99.427,157.18 100.532,156.021 101.96,156.021" style="fill:white;fill-rule:nonzero;"/>
    </g>
    <g transform="matrix(3.29666,0,0,3.29666,-145.552,-381.967)">
        <path d="M107.541,156.564L107.541,158.676L108.888,158.676C109.598,158.676 109.839,158.163 109.839,157.627C109.839,157.092 109.598,156.564 108.924,156.564L107.541,156.564ZM110.374,161.133L109.781,161.133L108.39,159.16L107.541,159.16L107.541,161.133L107.05,161.133L107.05,156.08L108.924,156.08C109.949,156.08 110.323,156.85 110.323,157.627C110.323,158.39 109.964,159.131 108.983,159.16L110.374,161.133Z" style="fill:white;fill-rule:nonzero;"/>
    </g>
    <g transform="matrix(3.29666,0,0,3.29666,-145.552,-381.967)">
        <path d="M115.756,156.08L115.756,156.564L113.406,156.564L113.406,158.412L115.273,158.412L115.273,158.896L113.406,158.896L113.406,161.133L112.923,161.133L112.923,156.08L115.756,156.08Z" style="fill:white;fill-rule:nonzero;"/>
    </g>
    <g transform="matrix(3.29666,0,0,3.29666,-145.552,-381.967)">
        <path d="M120.275,160.722C121.439,160.722 122.332,159.784 122.332,158.617C122.332,157.451 121.439,156.505 120.275,156.505C119.111,156.505 118.225,157.451 118.225,158.617C118.225,159.784 119.111,160.722 120.275,160.722M120.275,156.021C121.71,156.021 122.815,157.18 122.815,158.617C122.815,160.047 121.71,161.206 120.275,161.206C118.847,161.206 117.742,160.047 117.742,158.617C117.742,157.18 118.847,156.021 120.275,156.021" style="fill:white;fill-rule:nonzero;"/>
    </g>
    <g transform="matrix(3.29666,0,0,3.29666,-145.552,-381.967)">
        <path d="M125.848,156.08L125.848,160.649L127.986,160.649L127.986,161.133L125.365,161.133L125.365,156.08L125.848,156.08Z" style="fill:white;fill-rule:nonzero;"/>
    </g>
    <g transform="matrix(3.29666,0,0,3.29666,-145.552,-381.967)">
        <path d="M133.734,161.133L133.083,161.133L130.835,158.757L130.835,161.133L130.352,161.133L130.352,156.08L130.835,156.08L130.835,158.537L132.739,156.08L133.31,156.08L131.348,158.611L133.734,161.133Z" style="fill:white;fill-rule:nonzero;"/>
    </g>
    <g transform="matrix(3.29666,0,0,3.29666,-145.552,-381.967)">
        <path d="M93.448,165.367L93.448,167.479L94.905,167.479C95.615,167.479 95.879,166.966 95.879,166.43C95.879,165.895 95.615,165.367 94.942,165.367L93.448,165.367ZM94.942,164.883C95.967,164.883 96.362,165.653 96.362,166.43C96.362,167.208 95.967,167.963 94.942,167.963L93.448,167.963L93.448,169.936L92.958,169.936L92.958,164.883L94.942,164.883Z" style="fill:white;fill-rule:nonzero;"/>
    </g>
    <g transform="matrix(3.29666,0,0,3.29666,-145.552,-381.967)">
        <path d="M99.533,165.558L98.537,168.154L100.528,168.154L99.533,165.558ZM97.336,169.936L99.277,164.883L99.789,164.883L101.729,169.936L101.209,169.936L100.697,168.609L98.362,168.609L97.856,169.936L97.336,169.936Z" style="fill:white;fill-rule:nonzero;"/>
    </g>
    <g transform="matrix(3.29666,0,0,3.29666,-145.552,-381.967)">
        <path d="M104.732,169.525C105.493,169.525 105.889,169.092 105.969,168.696C106.065,168.073 105.581,167.758 105.01,167.626L104.329,167.472C103.282,167.237 103.144,166.629 103.144,166.203C103.144,165.381 103.92,164.824 104.725,164.824C105.618,164.824 106.306,165.389 106.306,166.269L105.823,166.269C105.823,165.682 105.347,165.308 104.725,165.308C104.168,165.308 103.627,165.668 103.627,166.203C103.627,166.467 103.722,166.841 104.432,167.003L105.12,167.156C105.925,167.339 106.591,167.817 106.445,168.784C106.328,169.371 105.772,170.009 104.732,170.009C103.736,170.009 103.1,169.224 103.1,168.483L103.583,168.483C103.583,168.99 104.029,169.525 104.732,169.525" style="fill:white;fill-rule:nonzero;"/>
    </g>
    <g transform="matrix(3.29666,0,0,3.29666,-145.552,-381.967)">
        <path d="M109.771,169.525C110.531,169.525 110.927,169.092 111.007,168.696C111.104,168.073 110.62,167.758 110.049,167.626L109.367,167.472C108.321,167.237 108.183,166.629 108.183,166.203C108.183,165.381 108.959,164.824 109.763,164.824C110.656,164.824 111.345,165.389 111.345,166.269L110.861,166.269C110.861,165.682 110.385,165.308 109.763,165.308C109.208,165.308 108.665,165.668 108.665,166.203C108.665,166.467 108.76,166.841 109.471,167.003L110.159,167.156C110.964,167.339 111.629,167.817 111.483,168.784C111.367,169.371 110.811,170.009 109.771,170.009C108.775,170.009 108.138,169.224 108.138,168.483L108.622,168.483C108.622,168.99 109.068,169.525 109.771,169.525" style="fill:white;fill-rule:nonzero;"/>
    </g>
    <g transform="matrix(3.29666,0,0,3.29666,-145.552,-381.967)">
        <path d="M113.981,165.367L113.981,167.479L115.438,167.479C116.148,167.479 116.412,166.966 116.412,166.43C116.412,165.895 116.148,165.367 115.475,165.367L113.981,165.367ZM115.475,164.883C116.5,164.883 116.895,165.653 116.895,166.43C116.895,167.208 116.5,167.963 115.475,167.963L113.981,167.963L113.981,169.936L113.491,169.936L113.491,164.883L115.475,164.883Z" style="fill:white;fill-rule:nonzero;"/>
    </g>
    <g transform="matrix(3.29666,0,0,3.29666,-145.552,-381.967)">
        <path d="M120.967,169.525C122.131,169.525 123.024,168.587 123.024,167.42C123.024,166.254 122.131,165.308 120.967,165.308C119.803,165.308 118.917,166.254 118.917,167.42C118.917,168.587 119.803,169.525 120.967,169.525M120.967,164.824C122.402,164.824 123.507,165.983 123.507,167.42C123.507,168.85 122.402,170.009 120.967,170.009C119.539,170.009 118.434,168.85 118.434,167.42C118.434,165.983 119.539,164.824 120.967,164.824" style="fill:white;fill-rule:nonzero;"/>
    </g>
    <g transform="matrix(3.29666,0,0,3.29666,-145.552,-381.967)">
        <path d="M126.006,165.367L126.006,167.479L127.353,167.479C128.063,167.479 128.305,166.966 128.305,166.43C128.305,165.895 128.063,165.367 127.39,165.367L126.006,165.367ZM128.839,169.936L128.246,169.936L126.856,167.963L126.006,167.963L126.006,169.936L125.516,169.936L125.516,164.883L127.39,164.883C128.415,164.883 128.788,165.653 128.788,166.43C128.788,167.193 128.429,167.934 127.448,167.963L128.839,169.936Z" style="fill:white;fill-rule:nonzero;"/>
    </g>
    <g transform="matrix(3.29666,0,0,3.29666,-145.552,-381.967)">
        <path d="M133.995,164.883L133.995,165.367L132.377,165.367L132.377,169.936L131.894,169.936L131.894,165.367L130.276,165.367L130.276,164.883L133.995,164.883Z" style="fill:white;fill-rule:nonzero;"/>
    </g>
</svg>
