<?xml version="1.0" encoding="UTF-8" standalone="no"?>
<!DOCTYPE svg PUBLIC "-//W3C//DTD SVG 1.1//EN" "http://www.w3.org/Graphics/SVG/1.1/DTD/svg11.dtd">
<svg width="100%" height="100%" viewBox="0 0 441 232" version="1.1" xmlns="http://www.w3.org/2000/svg" xmlns:xlink="http://www.w3.org/1999/xlink" xml:space="preserve" style="fill-rule:evenodd;clip-rule:evenodd;stroke-linejoin:round;stroke-miterlimit:1.41421;">
    <g transform="matrix(1,-2.4493e-16,2.4493e-16,1,-0.000451315,-0.000476108)">
        <path d="M307.816,111.793C313.172,108.223 318.519,103.765 323.869,100.203C324.759,106.44 322.969,116.253 324.759,121.603C328.319,133.196 339.909,135.868 349.719,141.221C355.959,134.981 363.089,141.221 366.659,148.361C372.009,160.851 365.769,159.061 356.839,163.521C342.569,170.651 331.869,176.001 323.839,190.281C316.699,200.981 321.159,209.011 318.489,219.711C314.919,235.761 301.539,230.411 292.619,229.521C285.479,206.331 257.839,225.951 240.899,227.741C226.629,229.531 211.469,227.741 197.199,225.071C187.399,224.181 171.709,213.481 162.799,215.261C156.559,216.161 153.879,226.851 146.749,228.641C141.389,230.431 127.639,227.751 123.189,226.861C125.859,216.171 132.989,209.031 130.319,199.221C128.539,189.411 119.619,180.501 117.839,169.791C115.159,149.281 122.299,125.201 138.349,112.721C167.779,90.431 220.389,87.751 255.169,94.881C270.329,97.561 293.519,102.911 305.999,112.721" style="fill:rgb(82,70,67);"/>
    </g>
    <g transform="matrix(1,-2.4493e-16,2.4493e-16,1,-0.000451315,-0.000476108)">
        <path d="M73.356,165.724C81.84,168.054 94.881,169.98 97.784,158.984C99.864,151.087 90.654,143.909 84.197,149.777C75.103,158.043 87.05,171.271 96.197,171.465C108.512,171.727 111.172,154.94 111.293,145.902C111.333,142.884 106.65,142.427 106.609,145.459C106.539,150.179 106.019,154.759 104.449,159.239C101.109,168.759 89.099,168.939 86.429,158.689C85.329,154.469 88.889,150.089 92.469,153.799C95.199,156.619 92.299,160.879 89.599,162.179C85.439,164.179 79.159,162.449 74.979,161.309C72.069,160.509 70.419,164.919 73.339,165.719" style="fill:rgb(82,70,67);fill-rule:nonzero;"/>
    </g>
    <g transform="matrix(1,-2.4493e-16,2.4493e-16,1,-0.000451315,-0.000476108)">
        <path d="M323.753,141.774C321.323,142.702 317.028,144.662 318.513,148.03C319.575,150.43 322.841,150.24 324.878,149.59C326.103,149.2 326.491,147.493 325.998,146.452C325.388,145.18 324.078,144.949 322.858,145.34C323.708,145.068 322.812,145.315 322.578,145.346C321.975,145.426 323.058,145.349 322.658,145.356C322.522,145.356 322.384,145.346 322.248,145.336C322.048,145.318 321.538,145.199 322.368,145.39C322.256,145.365 322.144,145.327 322.041,145.287C321.711,145.155 322.631,145.652 322.241,145.384C322.591,145.718 322.691,145.809 322.541,145.649C322.401,145.469 322.481,145.589 322.771,146.009C323.091,146.569 322.911,147.139 322.641,147.659C322.731,147.489 323.071,147.159 322.541,147.709C322.661,147.579 322.801,147.469 322.931,147.369C323.451,146.959 322.711,147.479 323.111,147.239C323.351,147.089 323.591,146.969 323.831,146.849C324.461,146.519 325.131,146.259 325.791,146.009C326.991,145.549 327.431,143.959 326.911,142.869C326.331,141.639 324.981,141.299 323.781,141.749" style="fill:rgb(255,236,188);fill-rule:nonzero;"/>
    </g>
    <g transform="matrix(1,-2.4493e-16,2.4493e-16,1,-0.000451315,-0.000476108)">
        <path d="M162.297,104.524C162.297,94.971 173.377,91.149 181.403,90.768C189.428,90.388 272.728,90.768 278.459,90.768C284.189,90.768 287.619,102.23 287.619,102.23L271.579,102.23C263.169,102.23 262.789,144.265 263.169,170.246C263.549,196.23 265.839,210.368 261.249,215.718C256.659,221.068 236.789,208.078 223.419,214.571C210.039,221.071 185.209,218.781 178.709,211.901C172.209,205.021 166.479,212.291 162.279,212.291C158.069,212.291 162.279,114.091 162.279,104.541M221.469,174.561C220.379,175.651 220.379,177.401 221.469,178.481C222.549,179.571 224.299,179.571 225.389,178.481C226.469,177.401 226.469,175.651 225.389,174.561C224.299,173.481 222.549,173.481 221.469,174.561M225.959,118.171C225.959,119.551 227.079,120.661 228.459,120.661C229.839,120.661 230.949,119.551 230.949,118.171C230.949,116.801 229.829,115.681 228.459,115.681C227.079,115.681 225.969,116.801 225.969,118.171M230.299,170.911C228.769,170.911 227.519,172.151 227.519,173.691C227.519,175.221 228.759,176.461 230.289,176.461C231.819,176.461 233.059,175.221 233.059,173.691C233.059,172.161 231.809,170.921 230.279,170.921M232.749,122.591C231.779,121.621 230.199,121.621 229.229,122.591C228.259,123.571 228.259,125.141 229.229,126.121C230.199,127.101 231.779,127.101 232.749,126.121C233.719,125.151 233.719,123.571 232.749,122.601M232.749,110.271C231.779,109.301 230.199,109.301 229.229,110.271C228.259,111.241 228.259,112.821 229.229,113.791C230.199,114.761 231.779,114.761 232.749,113.791C233.719,112.821 233.719,111.241 232.749,110.271M237.149,106.991C235.779,106.991 234.659,108.109 234.659,109.481C234.659,110.861 235.779,111.977 237.149,111.977C238.529,111.977 239.639,110.861 239.639,109.483C239.639,108.11 238.529,106.993 237.149,106.993M237.149,113.803C234.679,113.803 232.669,115.81 232.669,118.288C232.669,120.763 234.679,122.768 237.149,122.768C239.629,122.768 241.639,120.763 241.639,118.288C241.639,115.808 239.629,113.803 237.149,113.803M239.099,174.593C238.019,173.505 236.259,173.505 235.174,174.593C234.094,175.673 234.094,177.433 235.174,178.513C236.257,179.595 238.014,179.595 239.094,178.513C240.179,177.429 240.179,175.673 239.094,174.589M239.638,126.919C239.638,125.549 238.528,124.429 237.148,124.429C235.778,124.429 234.658,125.549 234.658,126.919C234.658,128.299 235.778,129.414 237.148,129.414C238.528,129.414 239.638,128.304 239.638,126.924M245.078,110.284C244.108,109.304 242.528,109.304 241.558,110.284C240.583,111.254 240.583,112.834 241.558,113.804C242.528,114.774 244.108,114.774 245.078,113.804C246.048,112.824 246.048,111.254 245.078,110.274M248.361,118.204C248.361,116.826 247.247,115.714 245.871,115.714C244.491,115.714 243.381,116.826 243.381,118.204C243.381,119.576 244.491,120.694 245.871,120.694C247.247,120.694 248.361,119.576 248.361,118.204M245.078,126.126C246.053,125.156 246.053,123.576 245.078,122.606C244.108,121.636 242.528,121.636 241.558,122.606C240.588,123.576 240.588,125.156 241.558,126.126C242.528,127.1 244.108,127.1 245.078,126.126M242.758,183.416C242.758,181.886 241.518,180.641 239.988,180.641C238.453,180.641 237.213,181.881 237.213,183.421C237.213,184.961 238.453,186.195 239.99,186.195C241.52,186.195 242.76,184.955 242.76,183.425M235.18,192.255C236.266,193.339 238.02,193.339 239.1,192.255C240.19,191.171 240.19,189.415 239.1,188.335C238.02,187.251 236.265,187.251 235.18,188.335C234.1,189.415 234.1,191.175 235.18,192.255M230.28,195.905C231.81,195.905 233.054,194.663 233.054,193.132C233.054,191.602 231.814,190.357 230.28,190.357C228.75,190.357 227.508,191.597 227.508,193.134C227.508,194.664 228.748,195.904 230.278,195.904M230.278,188.504C233.038,188.504 235.275,186.268 235.275,183.512C235.275,180.752 233.045,178.519 230.285,178.519C227.528,178.519 225.295,180.756 225.295,183.509C225.295,186.266 227.528,188.499 230.285,188.499M221.46,192.239C222.54,193.327 224.295,193.327 225.38,192.239C226.465,191.151 226.463,189.399 225.38,188.319C224.294,187.237 222.54,187.237 221.456,188.319C220.372,189.399 220.372,191.159 221.456,192.239M220.572,186.189C222.107,186.189 223.348,184.949 223.348,183.415C223.348,181.885 222.108,180.645 220.568,180.645C219.038,180.645 217.798,181.885 217.798,183.415C217.798,184.955 219.042,186.195 220.573,186.195M180.043,141.525C179.159,140.635 177.723,140.635 176.841,141.525C175.961,142.405 175.961,143.845 176.841,144.725C177.731,145.609 179.161,145.609 180.049,144.725C180.929,143.84 180.929,142.405 180.049,141.521M184.049,138.541C182.799,138.541 181.779,139.551 181.779,140.801C181.779,142.057 182.797,143.071 184.047,143.071C185.297,143.071 186.307,142.061 186.307,140.801C186.307,139.551 185.297,138.541 184.047,138.541M191.247,141.525C190.362,140.645 188.93,140.645 188.047,141.525C187.162,142.415 187.162,143.845 188.047,144.729C188.93,145.609 190.362,145.609 191.247,144.729C192.13,143.839 192.13,142.409 191.247,141.519M194.23,148.719C194.23,147.469 193.22,146.459 191.97,146.459C190.72,146.459 189.704,147.469 189.704,148.719C189.704,149.969 190.717,150.979 191.967,150.979C193.217,150.979 194.227,149.969 194.227,148.716M188.047,155.921C188.937,156.805 190.367,156.805 191.247,155.921C192.137,155.036 192.137,153.601 191.247,152.721C190.367,151.841 188.937,151.841 188.047,152.721C187.167,153.611 187.167,155.041 188.047,155.926M184.047,158.906C185.297,158.906 186.311,157.896 186.311,156.646C186.311,155.391 185.301,154.379 184.051,154.379C182.801,154.379 181.787,155.389 181.787,156.643C181.787,157.893 182.803,158.903 184.053,158.903M184.053,152.863C186.303,152.863 188.133,151.036 188.133,148.786C188.133,146.533 186.313,144.706 184.063,144.706C181.813,144.706 179.983,146.533 179.983,148.786C179.983,151.036 181.803,152.862 184.056,152.862M176.854,155.916C177.744,156.796 179.174,156.796 180.064,155.916C180.944,155.026 180.944,153.596 180.064,152.706C179.174,151.826 177.744,151.826 176.857,152.706C175.97,153.596 175.97,155.026 176.857,155.914M176.137,150.974C177.387,150.974 178.397,149.959 178.397,148.704C178.397,147.454 177.387,146.434 176.137,146.434C174.887,146.434 173.877,147.444 173.877,148.694C173.877,149.949 174.887,150.964 176.137,150.964" style="fill:rgb(179,179,168);fill-rule:nonzero;"/>
    </g>
</svg>
