<?xml version="1.0" encoding="UTF-8" standalone="no"?>
<!DOCTYPE svg PUBLIC "-//W3C//DTD SVG 1.1//EN" "http://www.w3.org/Graphics/SVG/1.1/DTD/svg11.dtd">
<svg width="100%" height="100%" viewBox="0 0 441 232" version="1.1" xmlns="http://www.w3.org/2000/svg" xmlns:xlink="http://www.w3.org/1999/xlink" xml:space="preserve" style="fill-rule:evenodd;clip-rule:evenodd;stroke-linejoin:round;stroke-miterlimit:1.41421;">
    <path d="M359.11,98.13L429.014,126.785L389.794,222.455L319.892,193.798L359.112,98.128L359.11,98.13ZM313.595,199.298L390.42,230.792C392.33,231.576 394.514,230.66 395.298,228.752L437.352,126.162C438.136,124.252 437.222,122.067 435.312,121.282L358.486,89.792C356.576,89.007 354.392,89.92 353.608,91.832L311.555,194.42C310.77,196.33 311.683,198.517 313.595,199.298" style="fill:rgb(82,70,67);fill-rule:nonzero;"/>
    <path d="M357.848,129.842C358.852,127.395 359.673,125.262 360.395,123.248L360.47,123.254C360.486,125.31 360.67,127.648 360.905,129.614L361.735,136.71L365.295,138.17L371.439,123.18L368.319,121.9L366.519,126.282C365.589,128.529 364.829,130.579 364.239,132.652L364.169,132.622C364.199,130.66 364.069,128.426 363.829,126.482L362.969,119.712L359.009,118.092L352.859,133.082L355.969,134.357L357.819,129.842L357.848,129.842ZM382.49,130.954L383.63,128.174L374.377,124.382L368.233,139.372L377.795,143.292L378.935,140.512L372.773,137.985L374.233,134.429L379.748,136.679L380.88,133.919L375.364,131.659L376.639,128.539L382.489,130.929L382.49,130.954ZM388.902,130.334L385.277,128.848L382.689,145.298L386.399,146.82L390.459,140.954C391.429,139.584 392.259,138.264 393.219,136.682L393.259,136.702C392.729,138.485 392.399,139.988 392.069,141.62L390.689,148.588L394.359,150.095L404.369,136.688L400.919,135.276L397.179,140.913C396.139,142.567 395.079,144.185 394.179,145.763L394.129,145.745C394.589,143.985 394.999,142.282 395.389,140.388L396.779,133.582L393.169,132.104L389.381,137.724C388.251,139.414 387.153,141.07 386.243,142.592L386.195,142.576C386.569,140.96 387.051,138.898 387.448,136.982L388.848,130.335L388.902,130.334ZM409.31,145.82C407.677,144.292 407.005,143.523 407.398,142.567C407.718,141.787 408.702,141.413 410.17,142.017C411.64,142.617 412.533,143.477 413.014,144.01L414.892,141.588C414.167,140.82 413.067,139.958 411.377,139.26C407.839,137.81 404.902,138.895 403.852,141.454C402.962,143.632 404.017,145.676 406.155,147.567C407.689,148.947 408.183,149.773 407.802,150.707C407.398,151.685 406.314,151.995 404.755,151.354C403.311,150.764 402.098,149.724 401.38,148.879L399.542,151.399C400.195,152.209 401.702,153.349 403.414,154.049C407.53,155.739 410.342,154.389 411.37,151.879C412.236,149.769 411.558,147.879 409.31,145.809M364.605,110.949L367.715,112.219L366.28,115.709L368.164,116.469L371.586,108.119L369.702,107.339L368.386,110.549L365.28,109.269L366.595,106.065L364.698,105.285L361.28,113.629L363.173,114.409L364.605,110.919L364.605,110.949ZM375.77,117.799L372.34,116.389L373.152,114.409L376.222,115.669L376.855,114.129L373.783,112.859L374.493,111.129L377.748,112.459L378.383,110.909L373.233,108.789L369.811,117.132L375.141,119.318L375.781,117.768L375.77,117.799ZM381.32,115.659C381.655,115.229 382.036,114.649 382.364,114.199L382.389,114.209C382.309,114.749 382.199,115.429 382.149,115.989L381.939,117.969L380.089,117.209L381.309,115.639L381.32,115.659ZM379.248,118.519L381.638,119.499L381.405,121.899L383.435,122.729L384.267,113.319L381.792,112.299L375.817,119.599L377.777,120.399L379.247,118.499L379.248,118.519ZM389.268,117.079C389.442,117.109 389.73,117.179 390.152,117.349C391.772,118.009 392.414,119.349 391.692,121.069C390.872,123.059 389.372,123.549 387.67,122.839C387.433,122.739 387.173,122.629 387.03,122.529L389.267,117.069L389.268,117.079ZM390.952,124.649C392.032,124.299 393.067,123.439 393.722,121.839C394.327,120.359 394.205,119.109 393.602,118.119C393.042,117.179 392.132,116.469 390.548,115.819C389.592,115.429 388.664,115.119 387.928,114.949L384.564,123.139C385.011,123.389 385.68,123.739 386.658,124.139C388.292,124.809 389.77,125.009 390.952,124.639M399.036,127.259L395.716,125.896L398.489,119.136L396.589,118.359L393.169,126.709L398.379,128.849L399.029,127.259L399.036,127.259ZM404.816,121.729L402.923,120.952L399.503,129.302L401.395,130.078L404.817,121.734L404.816,121.729ZM405.796,128.946C406.356,127.586 406.811,126.396 407.216,125.276L407.256,125.279C407.266,126.429 407.366,127.729 407.496,128.819L407.958,132.779L409.942,133.589L413.364,125.243L411.63,124.533L410.63,126.973C410.117,128.223 409.692,129.363 409.364,130.513L409.327,130.503C409.339,129.413 409.27,128.165 409.137,127.083L408.657,123.313L406.452,122.413L403.03,130.763L404.764,131.473L405.794,128.953L405.796,128.946ZM417.536,134.886L414.106,133.481L414.916,131.501L417.989,132.761L418.619,131.221L415.539,129.961L416.249,128.231L419.499,129.563L420.129,128.013L414.979,125.903L411.559,134.253L416.879,136.438L417.509,134.888L417.536,134.886ZM349.898,144.126L403.255,166L406.095,159.07L352.74,137.2L349.89,144.133L349.898,144.126ZM348.952,152.629L372.014,162.087L373.152,159.317L350.089,149.862L348.949,152.635L348.952,152.629ZM374.898,163.269L397.961,172.725L399.101,169.955L376.041,160.5L374.901,163.276L374.898,163.269ZM346.255,159.219L369.317,168.669L370.455,165.899L347.392,156.449L346.255,159.219ZM372.202,169.859L395.262,179.309L396.398,176.539L373.338,167.089L372.202,169.859ZM343.555,165.809L366.617,175.259L367.755,172.489L344.692,163.039L343.555,165.809ZM369.498,176.443L392.561,185.895L393.701,183.125L370.641,173.665L369.501,176.435L369.498,176.443ZM340.855,172.393L363.917,181.843L365.052,179.073L341.992,169.617L340.855,172.387L340.855,172.393ZM366.802,183.027L389.864,192.479L391.002,189.702L367.939,180.242L366.799,183.016L366.802,183.027ZM338.155,179L361.217,188.454L362.355,185.68L339.292,176.224L338.155,178.999L338.155,179ZM364.102,189.634L387.164,199.086L388.302,196.316L365.239,186.858L364.099,189.634L364.102,189.634ZM335.455,185.584L358.517,195.036L359.655,192.266L336.592,182.808L335.455,185.584ZM361.402,196.217L384.464,205.667L385.602,202.893L362.539,193.438L361.399,196.208L361.402,196.217ZM332.755,192.167L355.817,201.617L356.955,198.843L333.892,189.383L332.755,192.153L332.755,192.167ZM358.702,202.801L381.764,212.261L382.902,209.491L359.839,200.041L358.699,202.821L358.702,202.801Z" style="fill:rgb(82,70,67);fill-rule:nonzero;"/>
    <g transform="matrix(1,0,0,1,0,19)">
        <path d="M244.77,90.085C250.258,86.429 255.742,81.86 261.23,78.205C262.142,84.601 260.314,94.657 262.142,100.145C265.798,112.029 277.682,114.773 287.739,120.257C294.139,113.857 301.449,120.257 305.109,127.573C310.589,140.373 304.189,138.543 295.049,143.113C280.419,150.426 269.449,155.91 261.229,170.539C253.909,181.499 258.479,189.739 255.739,200.699C252.079,217.159 238.369,211.669 229.229,210.749C221.909,186.979 193.569,207.089 176.199,208.919C161.569,210.749 146.029,208.919 131.399,206.179C121.339,205.259 105.269,194.299 96.129,196.119C89.729,197.029 86.989,207.999 79.669,209.829C74.179,211.649 60.079,208.909 55.509,207.999C58.249,197.029 65.559,189.719 62.819,179.659C60.989,169.599 51.849,160.459 50.019,149.489C47.279,128.459 54.589,103.779 71.049,90.979C101.219,68.119 155.159,65.379 190.809,72.689C206.349,75.429 230.119,80.919 242.919,90.979" style="fill:rgb(82,70,67);"/>
    </g>
    <g transform="matrix(1,0,0,1,0,19)">
        <path d="M4.414,145.373C12.758,147.667 26.924,149.851 29.454,138.463C31.154,130.823 22.092,122.307 15.526,129.026C7.176,137.57 17.696,151.62 27.829,151.26C40.469,150.813 43.169,134.867 43.299,125.054C43.339,121.967 38.529,121.492 38.489,124.598C38.419,129.801 37.979,135.21 35.699,139.963C31.769,148.173 19.489,148.429 17.799,138.167C17.189,134.501 20.509,128.863 23.989,133.151C26.369,136.091 23.969,140.401 21.049,141.751C16.719,143.741 10.419,142.061 6.059,140.861C3.079,140.051 1.389,144.571 4.379,145.391" style="fill:rgb(82,70,67);fill-rule:nonzero;"/>
    </g>
    <g transform="matrix(1,0,0,1,0,19)">
        <path d="M261.108,120.82C258.72,121.745 254.17,123.782 255.714,127.18C256.689,129.33 259.639,129.642 261.644,129.026C262.892,128.646 263.848,127.629 263.601,126.232C263.401,125.072 262.071,123.892 260.811,124.276C260.521,124.366 260.231,124.432 259.931,124.479C259.401,124.559 260.281,124.449 259.721,124.479C259.141,124.509 259.591,124.479 259.581,124.489C259.331,124.389 259.361,124.419 259.681,124.579C259.451,124.409 259.501,124.489 259.841,124.819C260.201,125.129 260.341,125.539 260.281,126.049C259.931,126.809 259.881,126.999 260.131,126.619L260.031,126.749C260.171,126.619 260.321,126.509 260.471,126.399C261.331,125.869 262.291,125.499 263.221,125.139C266.111,124.019 264.041,119.659 261.151,120.779" style="fill:rgb(255,236,188);fill-rule:nonzero;"/>
    </g>
</svg>
