<?xml version="1.0" encoding="UTF-8" standalone="no"?>
<!DOCTYPE svg PUBLIC "-//W3C//DTD SVG 1.1//EN" "http://www.w3.org/Graphics/SVG/1.1/DTD/svg11.dtd">
<svg width="100%" height="100%" viewBox="0 0 441 232" version="1.1" xmlns="http://www.w3.org/2000/svg" xmlns:xlink="http://www.w3.org/1999/xlink" xml:space="preserve" style="fill-rule:evenodd;clip-rule:evenodd;stroke-linejoin:round;stroke-miterlimit:1.41421;">
    <g transform="matrix(1,0,0,1,0,5)">
        <path d="M290.564,103.92C296.052,100.264 301.536,95.692 307.024,92.04C307.936,98.436 306.108,108.492 307.936,113.976C311.593,125.864 323.476,128.608 333.533,134.092C339.933,127.692 347.246,134.092 350.905,141.408C356.39,154.204 349.993,152.376 340.845,156.945C326.221,164.261 315.252,169.742 307.025,184.373C299.708,195.343 304.277,203.57 301.535,214.539C297.877,230.989 284.168,225.499 275.025,224.589C267.711,200.819 239.371,220.929 222.002,222.759C207.374,224.589 191.832,222.759 177.205,220.009C167.149,219.099 151.08,208.129 141.935,209.949C135.535,210.859 132.795,221.829 125.48,223.659C119.996,225.479 105.896,222.739 101.324,221.819C104.071,210.849 111.38,203.539 108.639,193.479C106.809,183.419 97.669,174.279 95.839,163.309C93.089,142.279 100.409,117.599 116.859,104.799C147.029,81.949 200.969,79.199 236.619,86.509C252.159,89.249 275.929,94.739 288.729,104.793" style="fill:rgb(82,70,67);"/>
    </g>
    <g transform="matrix(1,0,0,1,0,5)">
        <path d="M50.208,159.208C58.552,161.498 72.718,163.683 75.248,152.298C76.948,144.658 67.886,136.138 61.321,142.861C52.971,151.411 63.491,165.461 73.631,165.101C86.281,164.661 88.981,148.711 89.111,138.901C89.151,135.811 84.351,135.341 84.311,138.451C84.241,143.651 83.801,149.061 81.531,153.821C77.601,162.031 65.321,162.291 63.631,152.031C63.031,148.371 66.341,142.731 69.831,147.021C72.221,149.961 69.821,154.271 66.901,155.621C62.581,157.611 56.271,155.921 51.911,154.721C48.931,153.901 47.241,158.421 50.231,159.249" style="fill:rgb(82,70,67);fill-rule:nonzero;"/>
    </g>
    <g transform="matrix(1,0,0,1,0,5)">
        <path d="M306.902,134.654C304.514,135.579 299.964,137.617 301.508,141.011C302.483,143.171 305.433,143.481 307.438,142.861C308.686,142.481 309.643,141.471 309.396,140.071C309.193,138.911 307.858,137.731 306.602,138.121C306.312,138.211 306.022,138.281 305.722,138.321C305.186,138.411 306.068,138.301 305.505,138.331C304.925,138.361 305.371,138.341 305.361,138.341C305.111,138.251 305.151,138.281 305.461,138.441C305.241,138.271 305.291,138.351 305.621,138.691C305.981,139.011 306.121,139.411 306.061,139.921C305.711,140.691 305.661,140.881 305.911,140.511L305.811,140.641C305.951,140.521 306.101,140.401 306.251,140.301C307.111,139.771 308.071,139.411 309.001,139.051C311.891,137.931 309.821,133.571 306.931,134.691" style="fill:rgb(255,236,188);fill-rule:nonzero;"/>
    </g>
    <g transform="matrix(1,0,0,1,0,5)">
        <path d="M280.133,96.598L295.543,130.464L304.755,127.051L294.375,91.321L280.133,96.601L280.133,96.598Z" style="fill:rgb(179,179,168);fill-rule:nonzero;"/>
    </g>
    <g transform="matrix(1,0,0,1,0,5)">
        <path d="M265.055,102.186L282.977,135.12L295.543,130.464L280.133,96.598L265.055,102.186L265.055,102.186ZM294.375,91.32L304.755,127.05L317.321,122.392L309.461,85.732L294.381,91.32L294.375,91.32Z" style="fill:rgb(179,179,168);fill-rule:nonzero;"/>
    </g>
    <g transform="matrix(1,0,0,1,0,5)">
        <path d="M303.064,66.492C296.808,56.795 284.454,52.379 273.184,56.558C261.914,60.736 255.421,72.128 256.996,83.564C248.896,87.064 244.849,96.314 247.952,104.689C251.158,113.339 260.774,117.749 269.427,114.539C274.005,112.839 277.38,109.349 279.083,105.149C282.886,105.579 286.843,105.159 290.677,103.739C294.507,102.319 297.787,100.059 300.383,97.249C304.408,99.319 309.249,99.769 313.827,98.069C322.48,94.859 326.897,85.249 323.689,76.589C320.579,68.209 311.489,63.829 303.059,66.459" style="fill:rgb(179,179,168);fill-rule:nonzero;"/>
    </g>
    <path d="M334.52,229.505C333.036,231.333 330.352,231.611 328.524,230.125L328.454,230.07C326.627,228.59 326.346,225.9 327.83,224.073L345.858,201.863C347.343,200.036 350.028,199.758 351.855,201.243L351.925,201.298C353.752,202.783 354.033,205.468 352.549,207.295L334.519,229.505L334.52,229.505Z" style="fill:rgb(82,70,67);fill-rule:nonzero;"/>
    <path d="M352.474,207.292L345.839,201.908C345.839,201.908 350.899,194.58 353.569,194.408C355.269,194.301 357.959,196.492 358.209,198.186C358.589,200.836 352.469,207.292 352.469,207.292" style="fill:rgb(82,70,67);fill-rule:nonzero;"/>
    <path d="M385.252,160.126C381.536,157.111 377.982,156.22 374.69,157.476C363.24,161.851 357.252,189.473 355.946,196.248C365.608,192.288 388.276,180.876 390.018,169.918C390.571,166.438 388.968,163.142 385.252,160.126M353.827,198.82L354.097,197.776L354.049,197.736L354.009,197.383C354.029,197.248 354.019,197.201 354.079,197.111L354.069,196.971L354.069,196.981C355.009,192.461 361.059,160.851 374.069,155.881C377.969,154.391 382.089,155.381 386.309,158.811C390.529,162.241 392.339,166.071 391.679,170.201C389.489,183.961 359.639,196.581 355.569,198.241L355.569,198.251L355.389,198.331C355.289,198.421 355.179,198.491 355.039,198.531L354.539,198.691L354.519,198.671L353.711,199.001L353.768,198.911L353.788,198.861L353.827,198.82Z" style="fill:rgb(82,70,67);fill-rule:nonzero;"/>
    <path d="M385.252,160.126C384.077,159.17 382.79,158.889 381.324,159.27C372.911,161.44 361.486,184.295 356.746,195.245C366.49,188.358 386.506,172.473 386.899,163.795C386.959,162.283 386.429,161.083 385.249,160.125M352.939,199.905L353.909,197.573C353.919,197.37 353.999,197.22 354.089,197.111L354.109,197.051C355.419,193.871 369.439,160.571 380.869,157.621C382.869,157.111 384.689,157.511 386.299,158.811C387.899,160.111 388.669,161.821 388.579,163.891C388.039,175.781 357.859,196.581 355.429,198.231C355.319,198.371 355.179,198.461 355.019,198.511L352.949,199.941L352.969,199.891L352.919,199.931L352.939,199.905Z" style="fill:rgb(82,70,67);fill-rule:nonzero;"/>
    <path d="M352.046,200.023L385.126,158.929L386.458,159.999L353.378,201.089L352.046,200.019L352.046,200.023Z" style="fill:rgb(82,70,67);fill-rule:nonzero;"/>
</svg>
