<?xml version="1.0" encoding="UTF-8" standalone="no"?>
<!DOCTYPE svg PUBLIC "-//W3C//DTD SVG 1.1//EN" "http://www.w3.org/Graphics/SVG/1.1/DTD/svg11.dtd">
<svg width="100%" height="100%" viewBox="0 0 441 232" version="1.1" xmlns="http://www.w3.org/2000/svg" xmlns:xlink="http://www.w3.org/1999/xlink" xml:space="preserve" style="fill-rule:evenodd;clip-rule:evenodd;stroke-linejoin:round;stroke-miterlimit:1.41421;">
    <path d="M152.3,210.104C146.812,213.761 141.328,218.334 135.844,221.986C134.928,215.589 136.756,205.533 134.928,200.048C131.272,188.161 119.388,185.418 109.331,179.933C102.931,186.333 95.621,179.933 91.961,172.617C86.481,159.817 92.881,161.647 102.021,157.077C116.651,149.764 127.621,144.283 135.851,129.651C143.161,118.691 138.601,110.461 141.341,99.491C145.001,83.031 158.711,88.521 167.851,89.441C175.171,113.211 203.511,93.101 220.881,91.271C235.511,89.451 251.051,91.271 265.681,94.021C275.737,94.939 291.809,105.901 300.951,104.079C307.347,103.163 310.091,92.199 317.406,90.366C322.892,88.542 336.992,91.282 341.564,92.196C338.821,103.164 331.511,110.476 334.252,120.536C336.075,130.592 345.222,139.736 347.047,150.704C349.79,171.734 342.474,196.411 326.021,209.214C295.848,232.067 241.911,234.811 206.261,227.498C190.717,224.758 166.948,219.268 154.148,209.214" style="fill:rgb(82,70,67);"/>
    <path d="M392.656,154.817C384.312,152.527 370.146,150.339 367.616,161.727C365.916,169.367 374.978,177.887 381.544,171.164C389.894,162.62 379.374,148.57 369.241,148.929C356.601,149.369 353.901,165.319 353.771,175.129C353.731,178.219 358.531,178.689 358.571,175.579C358.641,170.379 359.081,164.959 361.351,160.209C365.281,151.999 377.571,151.739 379.261,162.001C379.871,165.667 376.561,171.304 373.071,167.017C370.691,164.077 373.081,159.769 376.001,158.422C380.331,156.432 386.631,158.118 390.991,159.318C393.971,160.133 395.661,155.614 392.671,154.792" style="fill:rgb(82,70,67);fill-rule:nonzero;"/>
    <path d="M145.956,171.786C143.053,171.776 140.366,172.239 138.003,173.479C135.633,174.689 133.715,176.609 132.487,179.249C132.477,176.279 134.587,173.449 137.284,172.079C139.994,170.689 143.304,170.539 145.956,171.769" style="fill:rgb(255,236,188);fill-rule:nonzero;"/>
    <path d="M85.727,189.33L84.429,190.36L67.579,189.992L73.809,197.852L72.579,198.824L64.849,189.078L66.143,188.048L82.983,188.416L76.053,179.673L77.279,178.703L85.706,189.33L85.727,189.33ZM76.88,178.058L75.374,178.744L59.119,174.324L63.269,183.454L61.839,184.102L56.699,172.78L58.209,172.094L74.459,176.514L69.839,166.358L71.259,165.711L76.869,178.061L76.88,178.058ZM71.06,165.056L69.43,165.336L54.825,156.94L56.525,166.826L54.985,167.091L52.878,154.841L54.51,154.561L69.113,162.961L67.223,151.971L68.763,151.711L71.061,165.079L71.06,165.056ZM68.758,151.003L67.108,150.876L55,139.162L54.23,149.164L52.673,149.044L53.628,136.644L55.278,136.77L67.385,148.484L68.241,137.361L69.801,137.481L68.761,151.011L68.758,151.003ZM70.02,136.596L68.434,136.122L59.084,122.11L56.214,131.72L54.716,131.274L58.276,119.357L59.864,119.831L69.212,133.851L72.406,123.161L73.903,123.611L70.02,136.601L70.02,136.596ZM74.644,122.316L73.124,121.656L65.506,106.632L61.513,115.834L60.08,115.212L65.03,103.802L66.55,104.462L74.168,119.485L78.608,109.251L80.042,109.881L74.644,122.321L74.644,122.316ZM80.83,108.236L79.34,107.511L72.39,92.171L67.997,101.191L66.592,100.511L72.04,89.331L73.53,90.061L80.48,105.411L85.365,95.381L86.77,96.066L80.83,108.256L80.83,108.236ZM87.744,94.23L86.256,93.503L79.336,78.145L74.926,87.155L73.522,86.467L78.992,75.297L80.479,76.025L87.399,91.383L92.299,81.363L93.699,82.051L87.729,94.231L87.744,94.23ZM95.408,78.66L93.845,78.113L85.163,63.677L81.843,73.144L80.37,72.627L84.485,60.89L86.048,61.438L94.728,75.873L98.42,65.345L99.895,65.862L95.408,78.662L95.408,78.66Z" style="fill:rgb(82,70,67);fill-rule:nonzero;"/>
</svg>
