<?xml version="1.0" encoding="UTF-8" standalone="no"?>
<!DOCTYPE svg PUBLIC "-//W3C//DTD SVG 1.1//EN" "http://www.w3.org/Graphics/SVG/1.1/DTD/svg11.dtd">
<svg width="100%" height="100%" viewBox="0 0 441 232" version="1.1" xmlns="http://www.w3.org/2000/svg" xmlns:xlink="http://www.w3.org/1999/xlink" xml:space="preserve" style="fill-rule:evenodd;clip-rule:evenodd;stroke-linejoin:round;stroke-miterlimit:1.41421;">
    <g transform="matrix(-1,-1.22465e-16,1.22465e-16,-1,450.324,301.031)">
        <path d="M311.02,91.225C316.375,87.655 321.722,83.197 327.072,79.635C327.966,85.872 326.184,95.685 327.966,101.035C331.531,112.628 343.126,115.3 352.934,120.653C359.178,114.413 366.309,120.653 369.878,127.791C375.228,140.281 368.988,138.491 360.068,142.951C345.8,150.081 335.1,155.431 327.072,169.711C319.942,180.411 324.397,188.441 321.722,199.141C318.156,215.191 304.778,209.841 295.862,208.951C288.725,185.771 261.084,205.381 244.14,207.171C229.87,208.961 214.712,207.171 200.44,204.501C190.634,203.611 174.956,192.911 166.037,194.691C159.797,195.591 157.122,206.281 149.984,208.071C144.634,209.861 130.884,207.181 126.424,206.291C129.1,195.601 136.231,188.461 133.559,178.651C131.769,168.841 122.859,159.921 121.069,149.221C118.389,128.711 125.519,104.631 141.569,92.151C170.999,69.851 223.619,67.171 258.389,74.311C273.549,76.991 296.739,82.341 309.219,92.151" style="fill:rgb(82,70,67);"/>
    </g>
    <g transform="matrix(-1,-1.22465e-16,1.22465e-16,-1,450.324,301.031)">
        <path d="M76.56,145.156C85.043,147.488 98.084,149.413 100.987,138.416C103.067,130.519 93.857,123.341 87.4,129.209C78.306,137.469 90.253,150.699 99.4,150.889C111.715,151.149 114.375,134.359 114.497,125.319C114.537,122.299 109.853,121.839 109.812,124.869C109.75,129.589 109.228,134.169 107.656,138.649C104.322,148.169 92.312,148.349 89.636,138.099C88.534,133.879 92.096,129.499 95.678,133.209C98.408,136.039 95.512,140.289 92.815,141.589C88.655,143.589 82.375,141.859 78.193,140.719C75.283,139.919 73.633,144.329 76.559,145.129" style="fill:rgb(82,70,67);fill-rule:nonzero;"/>
    </g>
    <g transform="matrix(-1,-1.22465e-16,1.22465e-16,-1,450.324,301.031)">
        <path d="M326.953,121.206C324.525,122.134 320.231,124.094 321.713,127.463C322.775,129.863 326.041,129.673 328.081,129.023C329.311,128.631 329.691,126.925 329.201,125.883C328.591,124.613 327.281,124.381 326.061,124.773C326.921,124.5 326.021,124.747 325.781,124.778C325.181,124.858 326.271,124.781 325.871,124.788C325.741,124.788 325.601,124.778 325.461,124.768C325.261,124.75 324.751,124.631 325.591,124.822C325.481,124.797 325.371,124.759 325.261,124.719C324.931,124.579 325.851,125.079 325.461,124.809C325.811,125.139 325.911,125.229 325.761,125.069C325.621,124.889 325.701,125.009 325.991,125.429C326.311,125.999 326.131,126.559 325.861,127.079C325.951,126.909 326.291,126.579 325.761,127.129C325.881,126.999 326.021,126.889 326.151,126.789C326.661,126.379 325.931,126.899 326.331,126.659C326.571,126.519 326.811,126.389 327.051,126.269C327.691,125.949 328.351,125.689 329.011,125.429C330.211,124.969 330.651,123.379 330.131,122.289C329.551,121.059 328.201,120.719 327.001,121.169" style="fill:rgb(255,236,188);fill-rule:nonzero;"/>
    </g>
    <g transform="matrix(-1,-1.22465e-16,1.22465e-16,-1,450.324,301.031)">
        <path d="M165.5,83.956C165.5,74.403 176.58,70.581 184.606,70.2C192.631,69.82 275.931,70.2 281.662,70.2C287.394,70.2 290.832,81.663 290.832,81.663L274.784,81.663C266.378,81.663 265.994,123.697 266.378,149.678C266.758,175.663 269.053,189.8 264.465,195.15C259.881,200.5 240.012,187.51 226.637,194.003C213.262,200.5 188.427,198.206 181.931,191.328C175.441,184.45 169.711,191.713 165.501,191.713C161.301,191.713 165.501,93.509 165.501,83.956M224.691,153.972C223.611,155.056 223.611,156.812 224.691,157.894C225.781,158.978 227.531,158.978 228.621,157.894C229.711,156.814 229.711,155.056 228.621,153.972C227.541,152.888 225.781,152.888 224.701,153.972M229.201,97.584C229.201,98.959 230.321,100.074 231.691,100.074C233.071,100.074 234.191,98.959 234.191,97.584C234.191,96.209 233.071,95.094 231.701,95.094C230.331,95.094 229.211,96.209 229.211,97.584M233.541,150.316C232.011,150.316 230.761,151.559 230.761,153.091C230.761,154.631 232.011,155.871 233.541,155.871C235.071,155.871 236.311,154.631 236.311,153.101C236.311,151.571 235.071,150.331 233.541,150.331M236.011,102.001C235.041,101.031 233.461,101.031 232.491,102.001C231.521,102.971 231.521,104.551 232.491,105.521C233.461,106.501 235.041,106.501 236.021,105.521C236.991,104.551 236.991,102.971 236.021,102.001M236.021,89.671C235.051,88.701 233.471,88.701 232.501,89.671C231.531,90.651 231.531,92.221 232.501,93.201C233.471,94.181 235.051,94.181 236.021,93.201C236.991,92.231 236.991,90.651 236.021,89.681M240.421,86.401C239.051,86.401 237.931,87.521 237.931,88.891C237.931,90.271 239.051,91.381 240.421,91.381C241.801,91.381 242.911,90.271 242.911,88.891C242.911,87.521 241.801,86.401 240.421,86.401M240.421,93.211C237.951,93.211 235.941,95.221 235.941,97.701C235.941,100.181 237.951,102.181 240.431,102.181C242.911,102.181 244.911,100.181 244.911,97.701C244.911,95.221 242.901,93.221 240.431,93.221M242.361,154.001C241.281,152.921 239.531,152.921 238.441,154.001C237.361,155.091 237.361,156.841 238.441,157.921C239.531,159.011 241.281,159.011 242.361,157.921C243.451,156.841 243.451,155.091 242.361,154.001M242.901,106.331C242.901,104.961 241.791,103.841 240.411,103.841C239.041,103.841 237.921,104.961 237.921,106.331C237.921,107.711 239.041,108.821 240.411,108.821C241.791,108.821 242.901,107.711 242.901,106.331M248.341,89.691C247.371,88.721 245.791,88.721 244.821,89.691C243.851,90.661 243.851,92.241 244.821,93.211C245.801,94.181 247.371,94.181 248.341,93.211C249.311,92.241 249.311,90.661 248.341,89.691M251.621,97.611C251.621,96.241 250.511,95.121 249.131,95.121C247.751,95.121 246.641,96.241 246.641,97.611C246.641,98.991 247.751,100.101 249.131,100.101C250.511,100.101 251.621,98.991 251.621,97.611M248.341,105.541C249.311,104.571 249.311,102.991 248.341,102.021C247.371,101.051 245.791,101.051 244.821,102.021C243.851,102.991 243.851,104.571 244.821,105.541C245.799,106.521 247.371,106.521 248.341,105.541M246,162.82C246,161.29 244.76,160.05 243.23,160.05C241.692,160.05 240.452,161.29 240.452,162.82C240.452,164.35 241.692,165.595 243.232,165.595C244.762,165.595 246.002,164.355 246.002,162.825M238.422,171.655C239.512,172.739 241.262,172.739 242.342,171.655C243.432,170.57 243.432,168.815 242.342,167.735C241.262,166.649 239.512,166.649 238.422,167.735C237.342,168.815 237.342,170.575 238.422,171.655M233.522,175.31C235.052,175.31 236.292,174.07 236.292,172.54C236.292,171.01 235.052,169.77 233.522,169.77C231.992,169.77 230.742,171.01 230.742,172.54C230.742,174.072 231.992,175.315 233.522,175.315M233.522,167.919C236.282,167.919 238.512,165.679 238.512,162.929C238.512,160.169 236.282,157.929 233.522,157.929C230.762,157.929 228.532,160.169 228.532,162.919C228.532,165.669 230.772,167.909 233.532,167.909M224.702,171.649C225.792,172.729 227.542,172.729 228.632,171.649C229.715,170.559 229.715,168.809 228.632,167.729C227.552,166.639 225.792,166.639 224.712,167.729C223.626,168.809 223.626,170.559 224.712,171.649M223.826,165.589C225.364,165.589 226.606,164.349 226.606,162.809C226.606,161.279 225.366,160.039 223.836,160.039C222.306,160.039 221.066,161.279 221.066,162.809C221.066,164.339 222.306,165.579 223.836,165.579M183.306,120.909C182.421,120.019 180.986,120.019 180.102,120.909C179.212,121.789 179.212,123.229 180.102,124.109C180.982,124.989 182.422,124.989 183.302,124.109C184.184,123.219 184.184,121.789 183.302,120.909M187.302,117.919C186.052,117.919 185.042,118.929 185.042,120.179C185.042,121.429 186.055,122.439 187.305,122.439C188.555,122.439 189.567,121.429 189.567,120.171C189.567,118.921 188.551,117.911 187.301,117.911M194.501,120.891C193.621,120.011 192.191,120.011 191.301,120.891C190.421,121.778 190.421,123.211 191.301,124.097C192.191,124.977 193.621,124.977 194.501,124.097C195.391,123.207 195.391,121.777 194.501,120.887M197.491,128.087C197.491,126.837 196.481,125.817 195.231,125.817C193.981,125.817 192.971,126.827 192.971,128.077C192.971,129.332 193.991,130.344 195.241,130.344C196.491,130.344 197.501,129.33 197.501,128.074M191.311,135.284C192.191,136.164 193.621,136.164 194.511,135.284C195.391,134.397 195.391,132.964 194.511,132.079C193.621,131.194 192.191,131.194 191.311,132.079C190.421,132.963 190.421,134.399 191.311,135.282M187.311,138.262C188.561,138.262 189.581,137.252 189.581,136.002C189.581,134.752 188.569,133.742 187.319,133.742C186.069,133.742 185.057,134.756 185.057,136.012C185.057,137.262 186.077,138.272 187.327,138.272M187.327,132.232C189.577,132.232 191.407,130.412 191.407,128.162C191.407,125.912 189.577,124.082 187.327,124.082C185.074,124.082 183.247,125.902 183.247,128.162C183.247,130.412 185.067,132.232 187.324,132.232M180.12,135.282C181.005,136.162 182.44,136.162 183.324,135.282C184.214,134.392 184.214,132.962 183.324,132.072C182.444,131.187 181.004,131.187 180.124,132.072C179.241,132.956 179.241,134.392 180.124,135.272M179.404,130.328C180.654,130.328 181.664,129.315 181.664,128.062C181.664,126.812 180.644,125.798 179.394,125.798C178.144,125.798 177.134,126.812 177.134,128.062C177.134,129.312 178.144,130.322 179.4,130.322" style="fill:rgb(179,179,168);fill-rule:nonzero;"/>
    </g>
    <g transform="matrix(0.713203,0,0,0.815822,66.024,-106.781)">
        <path d="M396.484,187.26C396.484,201.12 386.428,212.35 386.428,212.35C386.428,212.35 376.375,201.12 376.375,187.26C376.375,173.4 386.428,162.17 386.428,162.17C386.428,162.17 396.484,173.4 396.484,187.26M374.484,187.072C374.544,183.378 375.262,179.888 376.306,176.732C369.362,170.375 361.336,167.738 361.336,167.738C361.336,167.738 359.362,177.178 362.116,187.1C365.209,187.747 368.066,188.766 370.659,190.147C372.189,190.969 373.619,191.903 374.929,192.917C374.619,191.037 374.449,189.081 374.479,187.072M411.519,167.74C411.519,167.74 403.649,170.325 396.759,176.544C397.789,179.864 398.469,183.554 398.409,187.447C398.369,189.419 398.159,191.335 397.799,193.172C399.099,192.242 400.509,191.382 402.009,190.638C404.599,189.356 407.439,188.438 410.499,187.885C413.579,177.685 411.499,167.741 411.499,167.741M369.859,192.101C358.339,186.191 344.719,189.751 344.719,189.751C344.719,189.751 349.759,202.901 361.279,208.811C369.499,213.031 378.809,212.421 383.449,211.731C381.319,208.911 377.559,203.211 375.639,196.041C373.929,194.561 371.999,193.201 369.849,192.101M402.959,192.101C400.809,193.201 398.879,194.561 397.169,196.041C395.249,203.211 391.489,208.911 389.359,211.721C393.999,212.421 403.309,213.031 411.539,208.801C423.049,202.891 428.099,189.741 428.099,189.741C428.099,189.741 414.479,186.181 402.959,192.101M88.6,187.2C83.768,179.84 74.4,178.64 66.425,176.12C66.455,177.37 66.405,178.64 66.495,179.89C66.529,180.37 66.585,180.84 66.632,181.32C67.082,183.24 67.512,185.17 68.075,187.05C69.565,192.03 71.845,196.47 74.455,200.96C75.395,202.58 73.225,204.17 72.055,202.657C68.115,197.543 64.735,190.252 63.625,183.137C63.505,182.652 63.405,182.162 63.325,181.671C63.065,180.631 62.855,179.581 62.695,178.561C62.465,177.071 61.915,173.281 63.865,172.611C63.985,172.571 64.105,172.581 64.215,172.611C64.365,172.591 64.52,172.581 64.67,172.631C74.385,175.451 85.6,175.761 91.82,184.941C93.25,187.051 89.99,189.351 88.595,187.221M77.275,165.861C72.507,162.741 66.535,161.141 61.007,162.521C55.481,163.901 50.681,168.651 50.194,174.331C49.88,178.011 51.324,181.671 53.414,184.721C55.494,187.781 58.204,190.341 60.78,192.991C65.705,198.061 70.218,203.531 74.258,209.331C76.281,212.241 78.422,215.241 79.981,218.421C81.421,221.351 82.581,224.091 85.341,226.081C87.911,227.931 91.421,228.661 94.331,227.411C98.981,225.401 100.421,219.531 100.501,214.471C100.701,201.601 96.001,188.991 88.891,178.261C85.751,173.511 82.051,169.001 77.291,165.881M48.641,199.881C40.791,196.061 34.641,187.661 26.321,185.141C26.921,188.821 26.011,193.061 26.591,196.741C27.591,203.011 30.071,207.591 33.071,212.991C33.731,214.169 32.491,215.331 31.371,214.581C26.631,211.401 23.581,204.131 22.481,198.717C21.911,195.877 21.231,191.617 21.871,188.047C22.051,185.927 22.831,183.734 23.851,182.607C24.461,181.937 25.111,181.575 25.761,181.427C29.041,180.237 32.841,183.247 35.211,185.357C39.821,189.437 46.271,193.537 49.731,198.597C50.211,199.297 49.451,200.287 48.661,199.903M15.351,175.293C12.201,180.043 11.711,186.203 13.061,191.743C14.401,197.273 17.421,202.263 20.849,206.813C28.589,217.093 38.899,225.743 51.099,229.863C55.899,231.473 61.913,232.093 65.359,228.383C67.509,226.053 67.999,222.503 67.109,219.463C66.159,216.193 63.969,214.183 61.686,211.853C59.206,209.316 57.096,206.293 55.036,203.416C50.916,197.666 47.276,191.586 44.136,185.25C42.496,181.933 40.98,178.523 38.806,175.533C36.621,172.549 33.661,169.963 30.086,169.03C24.571,167.594 18.49,170.53 15.346,175.275" style="fill:rgb(82,70,67);fill-rule:nonzero;"/>
    </g>
    <g transform="matrix(0.912755,-0.408508,0.408508,0.912755,-71.6384,64.5709)">
        <path d="M85.727,189.33L84.429,190.36L67.579,189.992L73.809,197.852L72.579,198.824L64.849,189.078L66.143,188.048L82.983,188.416L76.053,179.673L77.279,178.703L85.706,189.33L85.727,189.33ZM76.88,178.058L75.374,178.744L59.119,174.324L63.269,183.454L61.839,184.102L56.699,172.78L58.209,172.094L74.459,176.514L69.839,166.358L71.259,165.711L76.869,178.061L76.88,178.058ZM71.06,165.056L69.43,165.336L54.825,156.94L56.525,166.826L54.985,167.091L52.878,154.841L54.51,154.561L69.113,162.961L67.223,151.971L68.763,151.711L71.061,165.079L71.06,165.056ZM68.758,151.003L67.108,150.876L55,139.162L54.23,149.164L52.673,149.044L53.628,136.644L55.278,136.77L67.385,148.484L68.241,137.361L69.801,137.481L68.761,151.011L68.758,151.003ZM70.02,136.596L68.434,136.122L59.084,122.11L56.214,131.72L54.716,131.274L58.276,119.357L59.864,119.831L69.212,133.851L72.406,123.161L73.903,123.611L70.02,136.601L70.02,136.596ZM74.644,122.316L73.124,121.656L65.506,106.632L61.513,115.834L60.08,115.212L65.03,103.802L66.55,104.462L74.168,119.485L78.608,109.251L80.042,109.881L74.644,122.321L74.644,122.316ZM80.83,108.236L79.34,107.511L72.39,92.171L67.997,101.191L66.592,100.511L72.04,89.331L73.53,90.061L80.48,105.411L85.365,95.381L86.77,96.066L80.83,108.256L80.83,108.236ZM87.744,94.23L86.256,93.503L79.336,78.145L74.926,87.155L73.522,86.467L78.992,75.297L80.479,76.025L87.399,91.383L92.299,81.363L93.699,82.051L87.729,94.231L87.744,94.23ZM95.408,78.66L93.845,78.113L85.163,63.677L81.843,73.144L80.37,72.627L84.485,60.89L86.048,61.438L94.728,75.873L98.42,65.345L99.895,65.862L95.408,78.662L95.408,78.66Z" style="fill:rgb(82,70,67);fill-rule:nonzero;"/>
    </g>
</svg>
