<?xml version="1.0" encoding="UTF-8" standalone="no"?>
<!DOCTYPE svg PUBLIC "-//W3C//DTD SVG 1.1//EN" "http://www.w3.org/Graphics/SVG/1.1/DTD/svg11.dtd">
<svg width="100%" height="100%" viewBox="0 0 441 232" version="1.1" xmlns="http://www.w3.org/2000/svg" xmlns:xlink="http://www.w3.org/1999/xlink" xml:space="preserve" xmlns:serif="http://www.serif.com/" style="fill-rule:evenodd;clip-rule:evenodd;stroke-linejoin:round;stroke-miterlimit:1.41421;">
    <g transform="matrix(2.63807,0,0,2.63807,184.574,185.671)">
        <path d="M0,-50.827C-0.91,-52.515 -1.693,-54.438 -2.604,-56.126C-3.712,-54.608 -4.614,-51.775 -5.834,-50.617C-8.396,-48.063 -11.823,-48.982 -15.154,-48.946C-15.923,-51.464 -18.676,-50.819 -20.613,-49.44C-23.77,-46.902 -21.877,-46.498 -20.153,-44.075C-17.395,-40.2 -15.327,-37.294 -15.212,-32.414C-14.831,-28.598 -17.128,-27.109 -17.921,-23.917C-19.23,-19.193 -14.959,-18.728 -12.487,-17.715C-7.363,-22.82 -2.831,-13.786 1.38,-10.944C4.886,-8.478 9.127,-6.825 13.258,-5.532C15.965,-4.394 21.59,-5.017 23.689,-3.298C25.207,-2.19 24.414,1.002 26.042,2.47C27.201,3.688 31.196,4.909 32.495,5.299C33.288,2.107 32.41,-0.769 34.486,-2.978C36.329,-5.311 39.924,-6.41 41.892,-8.978C45.468,-14.003 46.96,-21.34 44.482,-26.874C39.855,-36.863 26.378,-44.933 16.223,-47.923C11.857,-49.34 5.004,-51.178 0.345,-50.342" style="fill:rgb(81,69,66);fill-rule:nonzero;"/>
    </g>
    <g transform="matrix(2.63807,0,0,2.63807,159.568,70.6899)">
        <path d="M0,-0.695C0.124,-0.553 0.244,-0.408 0.357,-0.257C0.406,-0.188 0.411,-0.183 0.369,-0.245C0.391,-0.213 0.412,-0.18 0.432,-0.146C0.468,-0.089 0.5,-0.03 0.53,0.03C0.556,0.08 0.614,0.265 0.544,0.046C0.564,0.109 0.57,0.259 0.554,0.01C0.563,0.159 0.6,-0.152 0.572,-0.066C0.62,-0.212 0.69,-0.282 0.839,-0.378C0.758,-0.326 1.034,-0.436 0.937,-0.411C0.842,-0.387 1.155,-0.414 1.009,-0.419C0.854,-0.425 1.18,-0.379 1.068,-0.406C1.031,-0.414 0.995,-0.427 0.96,-0.44C0.798,-0.499 1.098,-0.366 0.99,-0.423C0.951,-0.443 0.915,-0.466 0.879,-0.489C0.841,-0.513 0.806,-0.541 0.771,-0.569C0.955,-0.423 0.824,-0.523 0.784,-0.565C0.516,-0.839 0.088,-0.885 -0.207,-0.622C-0.483,-0.377 -0.531,0.095 -0.264,0.368C0.21,0.854 1.027,1.242 1.639,0.761C1.948,0.519 2.018,0.069 1.904,-0.287C1.74,-0.799 1.396,-1.229 1.048,-1.628C0.796,-1.916 0.341,-1.937 0.057,-1.685C-0.231,-1.43 -0.251,-0.982 0,-0.695" style="fill:rgb(255,236,188);fill-rule:nonzero;"/>
    </g>
    <g transform="matrix(2.63807,0,0,2.63807,241.664,75.9565)">
        <path d="M0,6.156C1.7,6.156 3.078,4.778 3.078,3.078C3.078,1.378 1.7,0 0,0C-1.7,0 -3.078,1.378 -3.078,3.078C-3.078,4.778 -1.7,6.156 0,6.156" style="fill:white;fill-rule:nonzero;"/>
    </g>
    <g transform="matrix(2.63807,0,0,2.63807,290.99,61.5326)">
        <path d="M0,9.432C2.605,9.432 4.716,7.321 4.716,4.716C4.716,2.111 2.605,0 0,0C-2.605,0 -4.716,2.111 -4.716,4.716C-4.716,7.321 -2.605,9.432 0,9.432" style="fill:rgb(81,69,66);fill-rule:nonzero;"/>
    </g>
    <g transform="matrix(2.63807,0,0,2.63807,122.357,118.937)">
        <ellipse cx="0" cy="-3.693" rx="3.693" ry="3.693" style="fill:rgb(81,69,66);"/>
    </g>
    <g transform="matrix(2.63807,0,0,2.63807,252.965,45.3932)">
        <path d="M0,4.617C1.275,4.617 2.308,3.584 2.308,2.309C2.308,1.034 1.275,0 0,0C-1.275,0 -2.308,1.034 -2.308,2.309C-2.308,3.584 -1.275,4.617 0,4.617" style="fill:rgb(179,178,167);fill-rule:nonzero;"/>
    </g>
    <g transform="matrix(2.63807,0,0,2.63807,292.813,65.0502)">
        <path d="M0,4.617C1.275,4.617 2.308,3.584 2.308,2.309C2.308,1.034 1.275,0 0,0C-1.275,0 -2.308,1.034 -2.308,2.309C-2.308,3.584 -1.275,4.617 0,4.617" style="fill:rgb(235,236,234);fill-rule:nonzero;"/>
    </g>
    <g transform="matrix(2.63807,0,0,2.63807,310.012,91.9712)">
        <path d="M0,4.617C1.275,4.617 2.308,3.584 2.308,2.309C2.308,1.034 1.275,0 0,0C-1.275,0 -2.308,1.034 -2.308,2.309C-2.308,3.584 -1.275,4.617 0,4.617" style="fill:rgb(81,69,66);fill-rule:nonzero;"/>
    </g>
    <g transform="matrix(2.63807,0,0,2.63807,119.961,77.4497)">
        <path d="M0,4.617C1.275,4.617 2.308,3.584 2.308,2.309C2.308,1.034 1.275,0 0,0C-1.275,0 -2.308,1.034 -2.308,2.309C-2.308,3.584 -1.275,4.617 0,4.617" style="fill:rgb(179,178,167);fill-rule:nonzero;"/>
    </g>
    <g transform="matrix(2.63807,0,0,2.63807,277.889,128.056)">
        <path d="M0,-3.97C-0.489,-3.97 -0.968,-3.932 -1.436,-3.859C-2.006,-6.934 -4.7,-9.264 -7.941,-9.264C-10.247,-9.264 -12.276,-8.084 -13.461,-6.295C-14.232,-6.504 -15.044,-6.617 -15.881,-6.617C-18.636,-6.617 -21.108,-5.414 -22.805,-3.506C-23.753,-6.829 -26.811,-9.264 -30.439,-9.264C-32.755,-9.264 -34.839,-8.272 -36.291,-6.69C-37.212,-7.469 -38.402,-7.94 -39.703,-7.94C-42.298,-7.94 -44.452,-6.073 -44.905,-3.61C-48.779,-2.501 -51.614,1.064 -51.614,5.294L9.264,5.294C9.264,0.178 5.116,-3.97 0,-3.97" style="fill:white;fill-rule:nonzero;"/>
    </g>
    <g transform="matrix(2.63807,0,0,2.63807,200.07,112.161)">
        <path d="M0,4.617C1.275,4.617 2.308,3.584 2.308,2.309C2.308,1.034 1.275,0 0,0C-1.275,0 -2.308,1.034 -2.308,2.309C-2.308,3.584 -1.275,4.617 0,4.617" style="fill:rgb(179,178,167);fill-rule:nonzero;"/>
    </g>
    <g transform="matrix(2.63807,0,0,2.63807,250.085,121.238)">
        <path d="M0,8.31C2.295,8.31 4.155,6.45 4.155,4.155C4.155,1.86 2.295,0 0,0C-2.295,0 -4.155,1.86 -4.155,4.155C-4.155,6.45 -2.295,8.31 0,8.31" style="fill:rgb(179,178,167);fill-rule:nonzero;"/>
    </g>
    <g transform="matrix(2.63807,0,0,2.63807,257.942,108.848)">
        <path d="M0,3.324C0.918,3.324 1.662,2.58 1.662,1.662C1.662,0.744 0.918,0 0,0C-0.918,0 -1.662,0.744 -1.662,1.662C-1.662,2.58 -0.918,3.324 0,3.324" style="fill:rgb(81,69,66);fill-rule:nonzero;"/>
    </g>
    <g transform="matrix(2.63807,0,0,2.63807,175.97,113.282)">
        <path d="M0,3.324C0.918,3.324 1.662,2.58 1.662,1.662C1.662,0.744 0.918,0 0,0C-0.918,0 -1.662,0.744 -1.662,1.662C-1.662,2.58 -0.918,3.324 0,3.324" style="fill:rgb(81,69,66);fill-rule:nonzero;"/>
    </g>
    <g transform="matrix(2.63807,0,0,2.63807,350.502,222.283)">
        <path d="M0,-37.932C-2.063,-37.731 -4.308,-37.712 -6.457,-37.597C-8.336,-33.818 -9.946,-30.13 -11.488,-26.276C-13.032,-22.416 -14.472,-18.434 -15.639,-14.076C-15.96,-12.875 -16.24,-12.123 -16.896,-11.225C-18.585,-8.914 -21.351,-7.534 -25.03,-7.116C-25.709,-7.039 -26.327,-7.056 -26.875,-6.907C-28.38,-6.496 -29.834,-5.737 -30.606,-4.517C-31.121,-3.704 -31.396,-2.487 -31.403,-1.205C-31.409,-0.035 -30.76,0.94 -30.816,2.275C-30.863,3.4 -31.539,3.378 -32.745,3.491C-34.239,3.632 -36.13,3.469 -36.099,2.024C-36.083,1.313 -35.367,1.142 -35.051,0.682C-34.11,-0.684 -34.297,-2.812 -35.134,-4.265C-35.839,-5.487 -36.757,-6.659 -38.027,-7.116C-38.95,-7.448 -40.581,-7.273 -41.843,-7.326C-42.866,-7.369 -43.904,-7.326 -44.903,-7.326C-50.89,-7.326 -57.108,-7.536 -63.183,-7.535C-63.515,-7.535 -64.142,-7.186 -64.441,-7.032C-66.121,-6.169 -68.031,-4.681 -67.921,-2.127C-67.876,-1.097 -67.446,-0.307 -67.753,0.808C-67.931,1.457 -68.239,1.848 -68.801,2.108C-69.814,2.575 -72.203,2.644 -72.994,1.898C-73.737,1.197 -73.188,-0.188 -72.616,-0.785C-72.163,-1.26 -71.502,-1.458 -71.107,-2.043C-71.025,-2.165 -70.916,-2.325 -70.856,-2.462C-69.832,-4.786 -71.53,-7.218 -73.036,-7.913C-73.607,-8.176 -74.193,-8.301 -74.755,-8.542C-76.386,-9.239 -77.693,-10.154 -78.822,-11.518C-80.242,-13.235 -80.927,-15.639 -81.714,-18.017C-83.252,-22.662 -84.704,-27.286 -86.326,-32.146C-86.967,-32.202 -87.439,-32.306 -88.129,-32.398C-88.714,-32.475 -89.558,-32.428 -89.89,-32.691C-90.31,-33.025 -90.203,-33.799 -89.974,-34.284C-89.792,-34.671 -89.566,-35.135 -89.219,-35.249C-88.415,-35.513 -87.461,-35.5 -86.368,-35.5C-83.371,-35.5 -80.017,-35.503 -77.27,-35.291C-75.384,-35.144 -73.714,-34.778 -71.904,-34.452C-66.704,-33.517 -62.224,-31.789 -56.391,-31.392C-52.616,-31.134 -48.569,-31.565 -44.903,-32.104C-43.132,-32.365 -41.395,-32.691 -39.704,-33.11C-38.069,-33.516 -36.492,-34.031 -34.883,-34.494C-31.562,-35.45 -28.363,-36.32 -25.24,-37.219C-22.027,-38.144 -18.799,-39.036 -15.429,-39.777C-12.881,-40.337 -10.285,-40.873 -7.547,-41.202C-6.581,-41.318 -5.528,-41.409 -4.57,-41.454C-3.143,-41.521 -1.071,-41.564 -0.21,-41.034C0.501,-40.597 0.609,-38.728 0,-37.932" style="fill:rgb(179,178,167);fill-rule:nonzero;"/>
    </g>
    <g transform="matrix(2.63807,0,0,2.63807,232.082,17.1919)">
        <path d="M0,3.591C0.992,3.591 1.795,2.787 1.795,1.796C1.795,0.804 0.992,0 0,0C-0.992,0 -1.795,0.804 -1.795,1.796C-1.795,2.787 -0.992,3.591 0,3.591" style="fill:rgb(81,69,66);fill-rule:nonzero;"/>
    </g>
    <g transform="matrix(2.63807,0,0,2.63807,205.463,32.8692)">
        <path d="M0,3.591C0.992,3.591 1.795,2.787 1.795,1.796C1.795,0.804 0.992,0 0,0C-0.992,0 -1.795,0.804 -1.795,1.796C-1.795,2.787 -0.992,3.591 0,3.591" style="fill:rgb(81,69,66);fill-rule:nonzero;"/>
    </g>
</svg>
