<?xml version="1.0" encoding="UTF-8" standalone="no"?>
<!DOCTYPE svg PUBLIC "-//W3C//DTD SVG 1.1//EN" "http://www.w3.org/Graphics/SVG/1.1/DTD/svg11.dtd">
<svg width="100%" height="100%" viewBox="0 0 441 232" version="1.1" xmlns="http://www.w3.org/2000/svg" xmlns:xlink="http://www.w3.org/1999/xlink" xml:space="preserve" style="fill-rule:evenodd;clip-rule:evenodd;stroke-linejoin:round;stroke-miterlimit:1.41421;">
    <path d="M291.867,108.798C297.355,105.142 302.839,100.57 308.327,96.918C309.239,103.314 307.411,113.37 309.239,118.854C312.889,130.742 324.779,133.486 334.829,138.97C341.229,132.57 348.539,138.97 352.199,146.282C357.679,159.082 351.279,157.254 342.139,161.822C327.509,169.139 316.539,174.62 308.319,189.252C300.999,200.22 305.569,208.448 302.829,219.417C299.169,235.877 285.459,230.387 276.319,229.473C268.999,205.703 240.659,225.817 223.289,227.645C208.659,229.473 193.119,227.645 178.489,224.901C168.429,223.991 152.359,213.031 143.219,214.851C136.819,215.771 134.079,226.731 126.759,228.571C121.269,230.401 107.169,227.661 102.599,226.741C105.342,215.781 112.652,208.461 109.911,198.401C108.085,188.351 98.941,179.201 97.113,168.231C94.368,147.211 101.683,122.531 118.137,109.721C148.307,86.871 202.247,84.131 237.897,91.441C253.437,94.181 277.207,99.671 290.007,109.731" style="fill:rgb(82,70,67);"/>
    <path d="M51.51,164.086C59.855,166.376 74.02,168.561 76.55,157.176C78.25,149.536 69.19,141.016 62.623,147.739C54.273,156.279 64.793,170.329 74.926,169.969C87.57,169.519 90.27,153.569 90.406,143.759C90.446,140.669 85.642,140.199 85.601,143.309C85.541,148.509 85.101,153.919 82.821,158.669C78.891,166.879 66.611,167.129 64.921,156.869C64.321,153.199 67.631,147.559 71.121,151.849C73.511,154.779 71.111,159.089 68.191,160.439C63.871,162.429 57.561,160.739 53.201,159.539C50.221,158.719 48.531,163.239 51.531,164.059" style="fill:rgb(82,70,67);fill-rule:nonzero;"/>
    <path d="M308.205,139.532C305.817,140.454 301.267,142.495 302.811,145.889C303.791,148.039 306.741,148.349 308.751,147.739C310.001,147.349 310.961,146.339 310.711,144.939C310.511,143.769 309.181,142.599 307.921,142.979C307.631,143.069 307.341,143.129 307.041,143.179C306.511,143.259 307.391,143.149 306.831,143.179C306.251,143.209 306.701,143.179 306.691,143.189C306.438,143.089 306.471,143.119 306.791,143.289C306.561,143.119 306.611,143.199 306.941,143.529C307.291,143.839 307.438,144.249 307.376,144.759C307.026,145.519 306.972,145.709 307.219,145.339L307.115,145.469C307.255,145.339 307.395,145.229 307.555,145.119C308.405,144.589 309.365,144.229 310.302,143.869C313.192,142.749 311.116,138.389 308.232,139.509" style="fill:rgb(255,236,188);fill-rule:nonzero;"/>
    <path d="M376.924,189.095L346.794,183.023L349.474,178.32C350.127,177.18 351.436,176.582 352.727,176.842L373.852,181.098C375.142,181.358 376.117,182.418 376.277,183.723L376.924,189.095Z" style="fill:rgb(37,28,27);fill-rule:nonzero;"/>
    <path d="M380.233,230.62L327.658,220.023C326.195,219.729 325.248,218.303 325.542,216.843L332.608,181.786C332.902,180.323 334.33,179.376 335.788,179.67L388.368,190.267C389.828,190.564 390.778,191.989 390.48,193.447L383.414,228.504C383.12,229.97 381.694,230.914 380.234,230.62" style="fill:rgb(82,70,67);fill-rule:nonzero;"/>
    <path d="M373.077,208.182C371.399,216.502 363.295,221.886 354.977,220.212C346.657,218.532 341.273,210.429 342.947,202.112C344.627,193.792 352.73,188.404 361.049,190.082C369.359,191.762 374.749,199.864 373.069,208.182" style="fill:rgb(37,28,27);fill-rule:nonzero;"/>
    <path d="M370.05,207.57C368.708,214.217 362.236,218.52 355.586,217.182C348.939,215.842 344.636,209.367 345.973,202.717C347.313,196.07 353.789,191.767 360.439,193.107C367.079,194.447 371.389,200.923 370.049,207.57" style="fill:rgb(179,179,168);fill-rule:nonzero;"/>
    <path d="M363.942,206.34C363.282,209.614 360.092,211.736 356.817,211.076C353.542,210.414 351.423,207.223 352.083,203.948C352.743,200.673 355.933,198.554 359.208,199.214C362.483,199.874 364.602,203.064 363.942,206.339" style="fill:rgb(82,70,67);fill-rule:nonzero;"/>
    <path d="M384.655,198.65L379.065,197.526L380.002,192.892L385.589,194.017L384.649,198.651L384.655,198.65Z" style="fill:rgb(179,179,168);fill-rule:nonzero;"/>
</svg>
