<?xml version="1.0" encoding="UTF-8" standalone="no"?>
<!DOCTYPE svg PUBLIC "-//W3C//DTD SVG 1.1//EN" "http://www.w3.org/Graphics/SVG/1.1/DTD/svg11.dtd">
<svg width="100%" height="100%" viewBox="0 0 441 232" version="1.1" xmlns="http://www.w3.org/2000/svg" xmlns:xlink="http://www.w3.org/1999/xlink" xml:space="preserve" style="fill-rule:evenodd;clip-rule:evenodd;stroke-linejoin:round;stroke-miterlimit:1.41421;">
    <g transform="matrix(1,0,0,1,-1,8)">
        <path d="M244.036,101.207C249.523,97.551 255.008,92.982 260.496,89.327C261.408,95.723 259.58,105.782 261.408,111.267C265.064,123.151 276.948,125.894 287.005,131.379C293.405,124.979 300.717,131.379 304.377,138.689C309.861,151.489 303.464,149.659 294.317,154.229C279.692,161.539 268.723,167.029 260.495,181.649C253.18,192.619 257.748,200.849 255.008,211.809C251.348,228.269 237.638,222.779 228.495,221.859C221.183,198.089 192.842,218.199 175.473,220.029C160.845,221.849 145.305,220.029 130.676,217.279C120.62,216.359 104.551,205.399 95.408,207.229C89.008,208.139 86.268,219.109 78.951,220.939C73.471,222.759 59.371,220.019 54.801,219.109C57.551,208.139 64.861,200.829 62.121,190.769C60.301,180.709 51.151,171.559 49.331,160.599C46.591,139.569 53.901,114.889 70.361,102.089C100.531,79.229 154.471,76.489 190.121,83.799C205.671,86.539 229.441,92.029 242.241,102.089" style="fill:rgb(82,70,67);"/>
    </g>
    <g transform="matrix(1,0,0,1,-1,8)">
        <path d="M3.68,156.498C12.023,158.791 26.19,160.976 28.72,149.588C30.42,141.951 21.358,133.432 14.792,140.151C6.442,148.701 16.962,162.751 27.095,162.391C39.74,161.951 42.44,146.001 42.573,136.191C42.613,133.101 37.811,132.631 37.77,135.741C37.7,140.941 37.26,146.351 34.986,151.101C31.056,159.311 18.776,159.571 17.086,149.311C16.483,145.651 19.796,140.011 23.28,144.301C25.664,147.241 23.267,151.551 20.345,152.891C16.02,154.891 9.715,153.201 5.355,152.001C2.375,151.181 0.685,155.701 3.68,156.521" style="fill:rgb(82,70,67);fill-rule:nonzero;"/>
    </g>
    <g transform="matrix(1,0,0,1,-1,8)">
        <path d="M260.373,131.944C257.986,132.866 253.436,134.904 254.98,138.301C255.955,140.461 258.905,140.771 260.91,140.151C262.158,139.771 263.114,138.761 262.867,137.361C262.664,136.201 261.33,135.021 260.073,135.411C259.783,135.511 259.493,135.571 259.193,135.621C258.658,135.701 259.539,135.601 258.977,135.631C258.395,135.661 258.842,135.631 258.833,135.641C258.58,135.551 258.613,135.581 258.933,135.741C258.705,135.571 258.755,135.661 259.086,135.991C259.439,136.301 259.583,136.721 259.52,137.221C259.17,137.981 259.117,138.181 259.364,137.801L259.258,137.931C259.398,137.811 259.542,137.691 259.698,137.591C260.552,137.061 261.511,136.701 262.445,136.341C265.335,135.226 263.261,130.871 260.373,131.988" style="fill:rgb(255,236,188);fill-rule:nonzero;"/>
    </g>
    <path d="M363.353,111.478L392.147,120.013C392.147,120.013 386.327,141.706 395.559,159.225C398.779,165.341 408.759,169.645 408.759,169.645L393.259,221.925C393.259,221.925 387.519,235.125 369.629,229.822L314.829,213.582C314.829,213.582 303.599,206.3 307.049,193.638C310.499,180.972 321.469,144.994 321.469,144.994C321.469,144.994 334.409,148.522 342.909,143.444C351.409,138.36 360.949,117.464 363.329,111.478" style="fill:rgb(179,179,168);fill-rule:nonzero;"/>
    <path d="M391.147,121.32L390.084,120.84C390.184,120.613 400.206,98.063 394.819,86.77C393.399,83.803 391.009,81.86 387.699,80.98C384.209,80.063 380.989,80.578 378.119,82.516C367.969,89.363 365.069,111.656 365.039,111.881L363.879,111.741C363.989,110.801 366.879,88.701 377.459,81.551C380.619,79.421 384.159,78.851 387.989,79.861C391.639,80.831 394.289,82.981 395.859,86.281C401.479,98.061 391.559,120.391 391.129,121.341M294.709,168.711L294.979,167.581C296.499,167.951 301.769,168.921 305.449,165.821C307.989,163.681 309.099,160.091 308.759,155.161C308.299,148.471 309.179,144.191 311.369,142.441C312.509,141.531 314.019,141.311 315.709,141.811C318.309,142.581 322.879,146.321 323.079,146.481L322.339,147.381C322.289,147.341 317.749,143.637 315.379,142.931C314.039,142.537 312.929,142.681 312.089,143.359C310.799,144.389 309.379,147.264 309.909,155.089C310.269,160.419 309.009,164.337 306.179,166.729C302.079,170.184 296.339,169.137 294.679,168.729M418.099,202.569C416.479,201.999 411.099,199.749 409.549,194.623C408.469,191.071 409.549,187.103 412.759,182.833C417.469,176.561 417.841,173.373 417.329,171.808C416.989,170.778 416.139,170.058 414.799,169.658C412.422,168.948 406.599,169.588 406.539,169.598L406.409,168.438C406.659,168.408 412.534,167.768 415.129,168.538C416.829,169.042 417.969,170.048 418.434,171.438C419.314,174.108 417.716,178.168 413.694,183.528C410.716,187.488 409.694,191.108 410.659,194.288C412.057,198.888 416.999,200.948 418.479,201.468L418.089,202.568L418.099,202.569Z" style="fill:rgb(37,28,27);fill-rule:nonzero;"/>
    <path d="M385.63,218.26C384.178,222.485 377.27,223.416 371.54,221.72L321.103,206.77C316.483,205.4 312.178,202.875 313.575,196.9C315.081,190.466 323.272,164.194 323.272,164.194L395.328,185.55C395.328,185.55 387.084,214.03 385.631,218.26" style="fill:rgb(227,222,210);fill-rule:nonzero;"/>
    <path d="M376.356,133.76C376.638,133.69 376.931,133.585 377.213,133.516C377.153,133.794 376.928,134.181 376.923,134.436C376.893,134.978 377.341,135.266 377.673,135.646C378.033,135.478 378.238,135.85 378.278,136.206C378.313,136.816 378.078,136.644 377.631,136.694C376.921,136.778 376.391,136.838 375.831,137.319C375.371,137.659 375.431,138.069 375.151,138.469C374.761,139.089 374.281,138.659 373.911,138.489C373.971,137.399 372.501,137.799 371.761,137.609C371.141,137.459 370.521,137.149 369.961,136.819C369.561,136.629 369.071,135.939 368.661,135.879C368.391,135.819 368.111,136.229 367.781,136.189C367.531,136.179 366.991,135.859 366.821,135.749C367.101,135.339 367.511,135.139 367.551,134.689C367.631,134.249 367.391,133.729 367.481,133.249C367.691,132.339 368.361,131.429 369.231,131.149C370.821,130.659 373.081,131.351 374.441,132.189C375.041,132.529 375.941,133.119 376.311,133.719" style="fill:rgb(82,70,67);"/>
    <path d="M365.638,132.438C366.916,133.263 366.925,131.798 366.384,131.906C365.959,131.994 366.041,132.672 366.272,132.886C366.85,133.41 367.338,132.628 367.538,132.169C367.594,132.039 367.394,131.969 367.341,132.089L365.761,132.259C365.651,132.179 365.531,132.359 365.641,132.429" style="fill:rgb(82,70,67);fill-rule:nonzero;"/>
    <path d="M376.56,135.27C376.494,135.28 376.425,135.294 376.356,135.306C376.294,135.316 376.266,135.369 376.269,135.428L376.269,135.491C376.269,135.531 376.299,135.571 376.329,135.581C376.359,135.601 376.399,135.601 376.439,135.611C376.559,135.661 376.639,135.461 376.509,135.421C376.529,135.451 376.559,135.471 376.579,135.491C376.709,135.471 376.669,135.261 376.539,135.291" style="fill:rgb(255,236,188);fill-rule:nonzero;"/>
    <path d="M367.094,138.147C366.922,137.917 366.766,137.647 366.594,137.413C366.459,137.663 366.384,138.103 366.228,138.303C365.9,138.735 365.368,138.673 364.872,138.747C364.702,138.387 364.306,138.541 364.047,138.787C363.631,139.235 363.922,139.253 364.227,139.577C364.722,140.1 365.091,140.487 365.209,141.213C365.339,141.775 365.029,142.047 364.979,142.538C364.879,143.272 365.529,143.25 365.919,143.35C366.569,142.48 367.439,143.735 368.129,144.072C368.709,144.362 369.369,144.522 370.019,144.628C370.449,144.741 371.269,144.531 371.619,144.741C371.869,144.881 371.809,145.371 372.089,145.561C372.289,145.721 372.909,145.821 373.109,145.851C373.159,145.361 372.969,144.951 373.229,144.581C373.449,144.191 373.959,143.961 374.209,143.531C374.629,142.701 374.699,141.581 374.219,140.811C373.319,139.421 371.139,138.491 369.559,138.261C368.879,138.141 367.819,138.011 367.139,138.241" style="fill:rgb(82,70,67);"/>
    <path d="M376.172,143.82C375.802,143.438 375.438,143.053 375.066,142.672C375.106,142.544 374.909,142.469 374.869,142.597C374.719,143.085 374.589,143.969 375.369,143.96C375.709,143.953 376.169,143.494 375.919,143.14C375.629,142.73 374.599,143.83 376.149,144.028C376.279,144.044 376.299,143.835 376.169,143.818" style="fill:rgb(82,70,67);fill-rule:nonzero;"/>
    <path d="M365.803,139.313C365.838,139.31 365.869,139.31 365.903,139.31C365.778,139.256 365.703,139.456 365.831,139.506C365.871,139.519 365.901,139.536 365.941,139.546C365.971,139.56 366.021,139.556 366.051,139.528L366.101,139.485C366.141,139.441 366.161,139.381 366.121,139.335L365.991,139.175C365.901,139.072 365.741,139.205 365.831,139.313" style="fill:rgb(255,236,188);fill-rule:nonzero;"/>
</svg>
