<?xml version="1.0" encoding="UTF-8" standalone="no"?>
<!DOCTYPE svg PUBLIC "-//W3C//DTD SVG 1.1//EN" "http://www.w3.org/Graphics/SVG/1.1/DTD/svg11.dtd">
<svg width="100%" height="100%" viewBox="0 0 314 46" version="1.1" xmlns="http://www.w3.org/2000/svg" xmlns:xlink="http://www.w3.org/1999/xlink" xml:space="preserve" style="fill-rule:evenodd;clip-rule:evenodd;stroke-linejoin:round;stroke-miterlimit:1.41421;">
    <g transform="matrix(0.75,0,0,0.75,0,0)">
        <g transform="matrix(2,0,0,2,-69.921,-42.2394)">
            <path d="M113.483,31.423L113.483,48.63L118.125,48.63L118.125,31.423L124.452,31.423L124.452,27.521L107.156,27.521L107.156,31.423L113.483,31.423Z" style="fill:rgb(82,70,67);fill-rule:nonzero;"/>
            <path d="M126.876,27.521L126.876,48.63L131.518,48.63L131.518,39.524L140.062,39.524L140.062,48.63L144.704,48.63L144.704,27.521L140.062,27.521L140.062,35.622L131.518,35.622L131.518,27.521L126.876,27.521Z" style="fill:rgb(82,70,67);fill-rule:nonzero;"/>
            <path d="M148.784,27.521L148.784,48.63L164.808,48.63L164.808,44.728L153.425,44.728L153.425,39.554L163.655,39.554L163.655,35.947L153.425,35.947L153.425,31.423L164.571,31.423L164.571,27.521L148.784,27.521Z" style="fill:rgb(82,70,67);fill-rule:nonzero;"/>
            <path d="M180.812,37.455L180.812,31.128L184.419,31.128C184.951,31.128 185.464,31.167 185.956,31.246C186.449,31.325 186.883,31.478 187.257,31.704C187.632,31.931 187.932,32.251 188.159,32.665C188.386,33.079 188.499,33.621 188.499,34.291C188.499,34.961 188.386,35.503 188.159,35.917C187.932,36.331 187.632,36.652 187.257,36.878C186.883,37.105 186.449,37.258 185.956,37.336C185.464,37.415 184.951,37.455 184.419,37.455L180.812,37.455ZM176.17,27.521L176.17,48.63L180.812,48.63L180.812,41.062L185.69,41.062C187.011,41.062 188.134,40.869 189.061,40.485C189.987,40.101 190.741,39.593 191.322,38.963C191.904,38.332 192.328,37.607 192.594,36.79C192.86,35.972 192.993,35.139 192.993,34.291C192.993,33.424 192.86,32.586 192.594,31.778C192.328,30.97 191.904,30.251 191.322,29.62C190.741,28.989 189.987,28.482 189.061,28.097C188.134,27.713 187.011,27.521 185.69,27.521L176.17,27.521Z" style="fill:rgb(82,70,67);fill-rule:nonzero;"/>
            <rect x="195.89" y="27.521" width="4.642" height="21.109" style="fill:rgb(82,70,67);fill-rule:nonzero;"/>
            <path d="M219.867,46.236L220.34,48.63L223.297,48.63L223.297,37.218L214.427,37.218L214.427,40.677L219.099,40.677C218.961,42.156 218.473,43.284 217.635,44.063C216.798,44.841 215.61,45.23 214.073,45.23C213.028,45.23 212.141,45.028 211.412,44.624C210.682,44.22 210.091,43.683 209.638,43.013C209.185,42.343 208.854,41.589 208.647,40.751C208.44,39.914 208.337,39.051 208.337,38.164C208.337,37.238 208.44,36.341 208.647,35.474C208.854,34.607 209.185,33.833 209.638,33.153C210.091,32.473 210.682,31.931 211.412,31.527C212.141,31.123 213.028,30.921 214.073,30.921C215.196,30.921 216.152,31.217 216.94,31.808C217.729,32.399 218.261,33.286 218.537,34.469L222.972,34.469C222.853,33.266 222.528,32.202 221.996,31.276C221.464,30.349 220.789,29.571 219.971,28.94C219.153,28.309 218.236,27.831 217.221,27.506C216.206,27.181 215.157,27.018 214.073,27.018C212.456,27.018 211.003,27.304 209.712,27.876C208.421,28.447 207.332,29.236 206.445,30.241C205.558,31.246 204.878,32.424 204.405,33.774C203.932,35.124 203.695,36.587 203.695,38.164C203.695,39.702 203.932,41.136 204.405,42.466C204.878,43.796 205.558,44.954 206.445,45.94C207.332,46.925 208.421,47.699 209.712,48.261C211.003,48.822 212.456,49.103 214.073,49.103C215.098,49.103 216.113,48.891 217.118,48.468C218.123,48.044 219.04,47.3 219.867,46.236Z" style="fill:rgb(82,70,67);fill-rule:nonzero;"/>
            <path d="M230.215,41.623L225.721,41.623C225.702,42.924 225.938,44.048 226.431,44.994C226.924,45.94 227.589,46.718 228.426,47.329C229.264,47.94 230.23,48.389 231.324,48.675C232.418,48.96 233.546,49.103 234.709,49.103C236.148,49.103 237.414,48.936 238.508,48.601C239.602,48.266 240.519,47.798 241.258,47.196C241.997,46.595 242.554,45.881 242.928,45.053C243.303,44.225 243.49,43.328 243.49,42.363C243.49,41.18 243.238,40.209 242.736,39.45C242.233,38.692 241.637,38.085 240.947,37.632C240.257,37.179 239.563,36.849 238.863,36.642C238.163,36.435 237.616,36.292 237.222,36.213C235.901,35.878 234.832,35.602 234.014,35.385C233.196,35.168 232.556,34.952 232.092,34.735C231.629,34.518 231.319,34.281 231.161,34.025C231.004,33.769 230.925,33.434 230.925,33.02C230.925,32.567 231.023,32.192 231.22,31.897C231.417,31.601 231.669,31.354 231.974,31.157C232.28,30.96 232.62,30.822 232.994,30.743C233.369,30.665 233.743,30.625 234.118,30.625C234.689,30.625 235.217,30.674 235.699,30.773C236.182,30.872 236.611,31.039 236.985,31.276C237.36,31.512 237.661,31.837 237.887,32.251C238.114,32.665 238.247,33.188 238.286,33.818L242.78,33.818C242.78,32.596 242.549,31.557 242.085,30.699C241.622,29.842 240.996,29.137 240.208,28.585C239.42,28.033 238.518,27.634 237.503,27.388C236.488,27.141 235.428,27.018 234.325,27.018C233.379,27.018 232.432,27.146 231.486,27.403C230.54,27.659 229.693,28.053 228.944,28.585C228.195,29.117 227.589,29.783 227.126,30.581C226.662,31.379 226.431,32.32 226.431,33.404C226.431,34.37 226.613,35.193 226.978,35.873C227.342,36.553 227.82,37.12 228.412,37.573C229.003,38.026 229.673,38.396 230.422,38.682C231.171,38.967 231.94,39.209 232.728,39.406C233.497,39.623 234.256,39.82 235.005,39.997C235.754,40.175 236.424,40.382 237.015,40.618C237.606,40.855 238.084,41.15 238.449,41.505C238.814,41.86 238.996,42.323 238.996,42.895C238.996,43.427 238.858,43.865 238.582,44.21C238.306,44.555 237.961,44.826 237.547,45.023C237.133,45.22 236.69,45.354 236.217,45.422C235.744,45.491 235.3,45.526 234.886,45.526C234.275,45.526 233.684,45.452 233.112,45.304C232.541,45.156 232.043,44.93 231.619,44.624C231.196,44.319 230.856,43.92 230.599,43.427C230.343,42.934 230.215,42.333 230.215,41.623Z" style="fill:rgb(82,70,67);fill-rule:nonzero;"/>
        </g>
        <g transform="matrix(2,0,0,2,-69.921,-42.2394)">
            <path d="M85.217,25.476C86.357,24.717 87.496,23.767 88.636,23.008C88.826,24.337 88.446,26.426 88.826,27.565C89.585,30.034 92.054,30.604 94.143,31.744C95.473,30.415 96.992,31.744 97.752,33.263C98.891,35.922 97.562,35.542 95.662,36.492C92.624,38.011 90.345,39.15 88.636,42.189C87.117,44.468 88.066,46.177 87.496,48.455C86.736,51.874 83.888,50.734 81.989,50.544C80.469,45.607 74.582,49.785 70.974,50.165C67.935,50.544 64.707,50.165 61.668,49.594C59.58,49.405 56.241,47.127 54.342,47.506C53.013,47.696 52.443,49.975 50.923,50.354C49.784,50.734 46.855,50.165 45.906,49.975C46.476,47.696 47.995,46.177 47.425,44.088C47.046,41.998 45.147,40.099 44.767,37.821C44.197,33.453 45.716,28.326 49.135,25.667C55.402,20.919 66.607,20.349 74.012,21.868C77.241,22.438 82.179,23.577 84.838,25.667" style="fill:rgb(82,70,67);fill-rule:nonzero;"/>
        </g>
        <g transform="matrix(2,0,0,2,-69.921,-42.2394)">
            <path d="M35.287,36.961C37.02,37.437 39.963,37.891 40.489,35.525C40.842,33.939 38.959,32.169 37.595,33.565C35.861,35.34 38.046,38.258 40.151,38.184C42.778,38.091 43.339,34.778 43.366,32.74C43.375,32.098 42.377,32 42.369,32.645C42.354,33.726 42.263,34.85 41.79,35.837C40.974,37.543 38.423,37.596 38.072,35.464C37.947,34.702 38.635,33.531 39.358,34.422C39.854,35.032 39.356,35.928 38.749,36.207C37.851,36.621 36.541,36.27 35.635,36.021C35.016,35.851 34.665,36.79 35.287,36.961" style="fill:rgb(82,70,67);fill-rule:nonzero;"/>
        </g>
        <g transform="matrix(2,0,0,2,-69.921,-42.2394)">
            <path d="M88.611,31.861C88.113,32.051 87.155,32.488 87.495,33.193C87.739,33.698 88.403,33.668 88.851,33.525C89.109,33.442 89.193,33.078 89.088,32.857C88.96,32.586 88.68,32.537 88.421,32.62C88.603,32.561 88.388,32.614 88.337,32.624C88.257,32.64 88.479,32.635 88.356,32.623C88.328,32.62 88.297,32.617 88.269,32.617C88.157,32.616 88.356,32.655 88.298,32.627C88.284,32.62 88.261,32.611 88.246,32.609C88.178,32.599 88.365,32.689 88.289,32.629C88.363,32.702 88.384,32.721 88.352,32.687C88.322,32.649 88.338,32.675 88.4,32.763C88.381,32.718 88.39,32.749 88.429,32.855C88.429,32.967 88.43,32.999 88.434,32.949C88.406,33.051 88.4,33.079 88.416,33.032C88.367,33.119 88.356,33.141 88.382,33.099C88.434,33.021 88.366,33.138 88.351,33.126C88.35,33.125 88.428,33.058 88.434,33.054C88.537,32.966 88.387,33.072 88.471,33.027C88.523,32.999 88.573,32.97 88.625,32.944C88.76,32.877 88.9,32.82 89.041,32.766C89.294,32.67 89.388,32.329 89.279,32.099C89.155,31.838 88.865,31.764 88.611,31.861" style="fill:rgb(255,236,188);fill-rule:nonzero;"/>
        </g>
    </g>
</svg>
